<svg width="180" height="57" viewBox="0 0 180 57" fill="none" xmlns="http://www.w3.org/2000/svg">
<path fill-rule="evenodd" clip-rule="evenodd" d="M115.343 19.8355C115.092 22.7205 110.833 23.3052 109.414 23.4728V23.4716C107.881 23.6922 104.84 23.9092 102.2 22.7506L102.305 22.747C100.32 22.1708 97.3172 20.9688 93.8168 19.0218C93.0257 18.5817 92.2539 18.1164 91.5157 17.6498C90.4585 18.2586 87.6277 20.401 87.0738 20.8808C86.4476 21.4245 86.1129 21.9682 85.7793 21.7994C85.6698 21.7452 85.5734 21.6753 85.494 21.6089L85.4446 21.6608C85.4446 21.6608 83.6396 19.6294 81.2579 17.3472L78.0959 20.2032C78.3463 20.3937 78.6004 20.5818 78.8557 20.7674C84.8919 25.1497 89.0569 27.0654 90.8426 27.192C92.6271 27.321 92.8836 26.5121 93.01 26.0009C93.1377 25.4897 92.756 25.2341 93.0955 25.1497C93.4351 25.0654 93.7325 25.4053 93.6904 26.2143C93.6482 27.0232 93.01 27.79 91.1822 28.13C89.3544 28.4699 86.7619 27.8744 83.6168 26.5964C83.1122 26.3927 82.5704 26.1371 82.0093 25.849C80.5162 27.4367 77.2578 31.4345 77.0086 31.772C76.7497 32.1253 76.5101 31.9951 76.4161 31.8649C76.3692 31.7973 76.2717 31.672 76.1898 31.5659L76.1777 31.5755C74.4005 29.1209 71.1999 26.4602 70.1969 25.6525C69.8068 25.884 69.4299 26.0949 69.0771 26.2746C66.363 27.6538 64.5677 28.0709 62.5219 28.1963C60.4761 28.3228 59.3069 26.3156 59.3069 25.9394C59.3069 25.5633 59.3069 25.3957 59.3069 25.3957C59.3069 25.3957 59.4321 24.852 59.8078 24.8942C60.1835 24.9352 60.2244 25.1449 60.2244 25.4379C60.2244 25.7308 60.3087 27.1932 62.6459 27.1932C64.9843 27.1932 67.8236 25.8984 70.6641 24.2661C72.7857 23.0484 74.3234 21.9007 74.9664 21.398C74.274 20.8989 73.6202 20.4106 73.0326 19.9585C72.2005 19.3183 71.2071 18.472 70.2113 17.5895C69.7261 18.0428 68.8555 18.8458 68.1993 19.4172C67.2396 20.2539 66.0295 21.7162 65.5695 21.6753C65.1095 21.6331 64.735 20.964 64.735 20.964L64.7374 20.9628C63.8789 20.2466 62.0222 18.7843 59.7115 17.4569C57.4887 18.9 55.2803 20.2129 53.4188 21.2147C48.9924 23.5982 43.0212 23.6814 41.5185 23.4728C40.0158 23.263 36.7586 21.6753 36.7996 19.1254C36.8417 16.5732 39.3053 15.1952 41.1007 15.1952C42.896 15.1952 44.9009 16.5322 44.9839 17.9114C45.067 19.2918 44.1916 19.9199 44.1916 19.9199C44.6083 17.2013 42.6046 16.9506 42.6046 16.9506C42.8551 17.3267 42.6046 17.8704 42.6046 17.8704C40.5576 16.0729 38.1361 18.331 38.1783 19.2086C38.2192 20.0863 39.138 22.3853 43.5221 22.5939C47.9075 22.8037 50.8721 21.3413 56.1328 18.4985C57.0359 18.0103 57.9149 17.4798 58.759 16.9325C57.6681 16.3586 56.5013 15.8366 55.308 15.4472C50.0798 13.7449 48.7191 15.405 48.8046 16.085C48.8889 16.7661 49.91 17.1495 50.5048 17.0217C51.0996 16.8939 51.3971 17.0217 51.3971 17.2351C51.3971 17.4473 51.0141 17.745 50.547 17.8306C50.0798 17.915 47.869 17.8728 47.7414 15.9584C47.6149 14.0427 51.2694 13.4471 53.9052 13.5327C55.5958 13.587 57.7452 13.8896 60.853 15.4918C63.8753 13.2964 66.0523 11.2144 66.2787 10.9311C66.6135 10.5127 66.7387 9.88463 67.3227 10.4296C67.9079 10.9721 68.1174 11.2228 68.1174 11.2228C68.1078 11.2313 68.0981 11.2385 68.0897 11.2469C68.7363 11.9233 70.0404 13.253 71.755 14.8504C72.398 14.3212 74.3162 12.7395 75.0567 12.127C72.4089 10.1185 70.2571 8.6682 69.7165 8.38248L69.7213 8.37766C69.5382 8.28965 69.3143 8.18718 69.2252 8.16065C69.0614 8.11484 69.2721 7.81224 69.5744 7.53254C69.8766 7.25285 74.9038 2.05677 75.6708 0.378599C75.6708 0.378599 75.9502 -0.203693 76.2993 0.0760031C76.6485 0.355699 76.5317 0.40151 76.8111 0.798147C76.8111 0.798147 76.8099 0.800558 76.8063 0.80538C77.436 1.68907 79.1663 3.89891 82.5776 6.89117L82.6053 6.8755C82.6053 6.8755 82.6137 6.90202 82.6402 6.94784C82.6691 6.97195 82.6956 6.99606 82.7233 7.02137L82.704 7.03584C82.7606 7.10456 82.8461 7.19136 82.981 7.29384C83.3157 7.5446 83.2314 7.62778 82.6474 8.04612C82.1947 8.37042 79.6034 10.2306 78.4655 11.0468C78.8605 11.3675 79.2603 11.699 79.6636 12.0426C80.7148 12.9396 81.7745 13.8872 82.7679 14.7962C83.5072 13.9559 86.031 11.0842 86.2803 10.7635C86.5223 10.4513 86.7378 10.5706 87.0437 10.7876L87.0593 10.7659C87.0593 10.7659 89.6819 13.0794 93.1582 15.5834C94.3972 14.8878 97.3461 13.4387 100.395 13.4387C104.402 13.4387 104.737 15.1952 104.695 15.8221C104.653 16.449 103.275 17.6619 102.608 17.7872C101.939 17.9114 101.145 17.7872 101.145 17.5775C101.145 17.3689 101.187 17.1603 101.771 17.0772C102.356 16.9928 103.567 16.2405 103.567 15.739C103.567 15.2362 103.023 14.6515 100.395 14.4008C98.2744 14.1982 95.2918 15.6775 94.1455 16.2827C95.1967 17.0145 96.3057 17.7463 97.4303 18.4262C101.542 20.9085 106.959 22.3239 109.256 22.8471C109.62 22.7808 109.977 22.6952 110.322 22.5843V22.5879C111.263 22.3058 112.649 21.8055 113.255 21.1725C114.216 20.1695 114.8 18.5395 112.796 17.4943C110.791 16.449 110.248 18.331 110.248 18.331C110.248 18.331 109.664 17.6619 110.207 16.9096C110.207 16.9096 107.994 17.1603 109.038 20.0031C109.038 20.0031 107.618 19.3328 107.659 17.8282C107.701 16.3225 109.872 15.153 111.334 15.487C112.796 15.8221 115.593 16.9506 115.343 19.8355ZM75.4288 2.65595C76.386 3.72771 79.0628 6.67899 80.7726 8.11122L81.4831 7.61091C80.71 6.9828 78.0405 4.73197 75.9429 1.9748C75.784 2.18698 75.6106 2.41724 75.4288 2.65595ZM72.1114 6.50417C72.8496 6.96109 75.0266 8.34993 77.5902 10.3524L80.0827 8.59707C79.3494 8.00152 77.6455 6.53673 74.7075 3.5939C74.2668 4.15811 73.8309 4.69701 73.4841 5.08641C73.1084 5.50596 72.6124 6.0123 72.1114 6.50417ZM60.0643 16.0536C58.0377 15.0843 55.6825 14.3272 53.2249 14.2983C53.2249 14.2983 55.7981 14.5768 59.4646 16.4659C59.6681 16.3297 59.8668 16.191 60.0643 16.0536ZM65.9163 19.9091C65.0915 19.193 63.3443 17.7885 61.0661 16.5612C60.8542 16.7046 60.6435 16.8469 60.4303 16.9867C61.9391 17.8391 63.5959 18.9603 65.313 20.4251C65.5117 20.2454 65.7296 20.0549 65.9163 19.9091ZM69.3022 16.7746C67.7357 15.3544 66.2883 13.9728 65.5972 13.3073C64.4256 14.2163 63.1528 15.1374 61.8476 16.0319C63.2684 16.8409 64.8783 17.9114 66.7122 19.3232C67.4082 18.6963 68.705 17.3834 69.3022 16.7746ZM77.2301 29.696C75.6756 27.9467 72.7508 25.4391 71.8056 24.6398C71.5431 24.8134 71.277 24.9858 71.0133 25.1534C72.6641 26.4024 75.5733 29.4392 76.5823 30.511C76.7533 30.2819 76.9761 30.0034 77.2301 29.696ZM81.0941 25.3631C79.3229 24.3818 77.3999 23.1232 75.6636 21.8959C75.1302 22.2997 74.0356 23.1159 72.7893 23.9755C75.3613 25.6874 77.3806 27.9322 78.0574 28.7279C79.2073 27.4054 80.5655 25.9334 81.0941 25.3631ZM76.8581 20.5963C72.7147 17.3617 68.3992 13.4327 67.0229 12.1632C66.7953 12.3525 66.5617 12.543 66.3233 12.7346C67.2781 13.7859 69.9199 16.5672 73.4155 19.1918C77.8358 22.5119 82.7666 26.4699 88.7162 27.3632C88.7162 27.3632 81.8744 24.5108 76.8581 20.5963ZM86.5789 20.0152C85.4446 18.8397 81.7612 15.094 78.4306 12.4682C75.1 9.84365 72.215 7.83996 71.3456 7.24561C71.0819 7.49637 70.8387 7.72664 70.6304 7.92074C71.7225 8.67423 75.4107 11.2445 78.3451 13.5749C81.3494 15.9584 84.9497 19.6969 85.8889 20.6879C86.0262 20.5505 86.1839 20.3925 86.3633 20.2117C86.4199 20.1562 86.4934 20.0899 86.5789 20.0152ZM80.6149 16.7396C79.7431 15.9258 78.8123 15.1 77.8779 14.3405C77.2048 13.7943 76.5402 13.2675 75.8936 12.7684L72.634 15.6594C74.032 16.9289 75.6431 18.3129 77.359 19.6414L80.6149 16.7396ZM90.5922 17.0506C88.2261 15.4846 86.3525 13.9921 85.6144 13.3893L83.4843 15.4568C85.3097 17.1483 86.8221 18.6275 87.4928 19.2894C88.5428 18.4925 89.9624 17.4907 90.5922 17.0506ZM104.365 22.8664C104.871 22.9351 105.539 23.005 106.288 23.034C104.948 22.6084 98.1516 20.3768 93.6482 17.3195C89.9516 14.8107 87.6891 13.0433 86.7523 12.285L86.3513 12.6756C87.2291 13.5629 89.6 15.745 93.7747 18.1284C98.077 20.5842 102.642 22.2684 104.365 22.8664Z" fill="black"/>
<path fill-rule="evenodd" clip-rule="evenodd" d="M115.343 19.8355C115.092 22.7205 110.833 23.3052 109.414 23.4728V23.4716C107.881 23.6922 104.84 23.9092 102.2 22.7506L102.305 22.747C100.32 22.1708 97.3172 20.9688 93.8168 19.0218C93.0257 18.5817 92.2539 18.1164 91.5157 17.6498C90.4585 18.2586 87.6277 20.401 87.0738 20.8808C86.4476 21.4245 86.1129 21.9682 85.7793 21.7994C85.6698 21.7452 85.5734 21.6753 85.494 21.6089L85.4446 21.6608C85.4446 21.6608 83.6396 19.6294 81.2579 17.3472L78.0959 20.2032C78.3463 20.3937 78.6004 20.5818 78.8557 20.7674C84.8919 25.1497 89.0569 27.0654 90.8426 27.192C92.6271 27.321 92.8836 26.5121 93.01 26.0009C93.1377 25.4897 92.756 25.2341 93.0955 25.1497C93.4351 25.0654 93.7325 25.4053 93.6904 26.2143C93.6482 27.0232 93.01 27.79 91.1822 28.13C89.3544 28.4699 86.7619 27.8744 83.6168 26.5964C83.1122 26.3927 82.5704 26.1371 82.0093 25.849C80.5162 27.4367 77.2578 31.4345 77.0086 31.772C76.7497 32.1253 76.5101 31.9951 76.4161 31.8649C76.3692 31.7973 76.2717 31.672 76.1898 31.5659L76.1777 31.5755C74.4005 29.1209 71.1999 26.4602 70.1969 25.6525C69.8068 25.884 69.4299 26.0949 69.0771 26.2746C66.363 27.6538 64.5677 28.0709 62.5219 28.1963C60.4761 28.3228 59.3069 26.3156 59.3069 25.9394C59.3069 25.5633 59.3069 25.3957 59.3069 25.3957C59.3069 25.3957 59.4321 24.852 59.8078 24.8942C60.1835 24.9352 60.2244 25.1449 60.2244 25.4379C60.2244 25.7308 60.3087 27.1932 62.6459 27.1932C64.9843 27.1932 67.8236 25.8984 70.6641 24.2661C72.7857 23.0484 74.3234 21.9007 74.9664 21.398C74.274 20.8989 73.6202 20.4106 73.0326 19.9585C72.2005 19.3183 71.2071 18.472 70.2113 17.5895C69.7261 18.0428 68.8555 18.8458 68.1993 19.4172C67.2396 20.2539 66.0295 21.7162 65.5695 21.6753C65.1095 21.6331 64.735 20.964 64.735 20.964L64.7374 20.9628C63.8789 20.2466 62.0222 18.7843 59.7115 17.4569C57.4887 18.9 55.2803 20.2129 53.4188 21.2147C48.9924 23.5982 43.0212 23.6814 41.5185 23.4728C40.0158 23.263 36.7586 21.6753 36.7996 19.1254C36.8417 16.5732 39.3053 15.1952 41.1007 15.1952C42.896 15.1952 44.9009 16.5322 44.9839 17.9114C45.067 19.2918 44.1916 19.9199 44.1916 19.9199C44.6083 17.2013 42.6046 16.9506 42.6046 16.9506C42.8551 17.3267 42.6046 17.8704 42.6046 17.8704C40.5576 16.0729 38.1361 18.331 38.1783 19.2086C38.2192 20.0863 39.138 22.3853 43.5221 22.5939C47.9075 22.8037 50.8721 21.3413 56.1328 18.4985C57.0359 18.0103 57.9149 17.4798 58.759 16.9325C57.6681 16.3586 56.5013 15.8366 55.308 15.4472C50.0798 13.7449 48.7191 15.405 48.8046 16.085C48.8889 16.7661 49.91 17.1495 50.5048 17.0217C51.0996 16.8939 51.3971 17.0217 51.3971 17.2351C51.3971 17.4473 51.0141 17.745 50.547 17.8306C50.0798 17.915 47.869 17.8728 47.7414 15.9584C47.6149 14.0427 51.2694 13.4471 53.9052 13.5327C55.5958 13.587 57.7452 13.8896 60.853 15.4918C63.8753 13.2964 66.0523 11.2144 66.2787 10.9311C66.6135 10.5127 66.7387 9.88463 67.3227 10.4296C67.9079 10.9721 68.1174 11.2228 68.1174 11.2228C68.1078 11.2313 68.0981 11.2385 68.0897 11.2469C68.7363 11.9233 70.0404 13.253 71.755 14.8504C72.398 14.3212 74.3162 12.7395 75.0567 12.127C72.4089 10.1185 70.2571 8.6682 69.7165 8.38248L69.7213 8.37766C69.5382 8.28965 69.3143 8.18718 69.2252 8.16065C69.0614 8.11484 69.2721 7.81224 69.5744 7.53254C69.8766 7.25285 74.9038 2.05677 75.6708 0.378599C75.6708 0.378599 75.9502 -0.203693 76.2993 0.0760031C76.6485 0.355699 76.5317 0.40151 76.8111 0.798147C76.8111 0.798147 76.8099 0.800558 76.8063 0.80538C77.436 1.68907 79.1663 3.89891 82.5776 6.89117L82.6053 6.8755C82.6053 6.8755 82.6137 6.90202 82.6402 6.94784C82.6691 6.97195 82.6956 6.99606 82.7233 7.02137L82.704 7.03584C82.7606 7.10456 82.8461 7.19136 82.981 7.29384C83.3157 7.5446 83.2314 7.62778 82.6474 8.04612C82.1947 8.37042 79.6034 10.2306 78.4655 11.0468C78.8605 11.3675 79.2603 11.699 79.6636 12.0426C80.7148 12.9396 81.7745 13.8872 82.7679 14.7962C83.5072 13.9559 86.031 11.0842 86.2803 10.7635C86.5223 10.4513 86.7378 10.5706 87.0437 10.7876L87.0593 10.7659C87.0593 10.7659 89.6819 13.0794 93.1582 15.5834C94.3972 14.8878 97.3461 13.4387 100.395 13.4387C104.402 13.4387 104.737 15.1952 104.695 15.8221C104.653 16.449 103.275 17.6619 102.608 17.7872C101.939 17.9114 101.145 17.7872 101.145 17.5775C101.145 17.3689 101.187 17.1603 101.771 17.0772C102.356 16.9928 103.567 16.2405 103.567 15.739C103.567 15.2362 103.023 14.6515 100.395 14.4008C98.2744 14.1982 95.2918 15.6775 94.1455 16.2827C95.1967 17.0145 96.3057 17.7463 97.4303 18.4262C101.542 20.9085 106.959 22.3239 109.256 22.8471C109.62 22.7808 109.977 22.6952 110.322 22.5843V22.5879C111.263 22.3058 112.649 21.8055 113.255 21.1725C114.216 20.1695 114.8 18.5395 112.796 17.4943C110.791 16.449 110.248 18.331 110.248 18.331C110.248 18.331 109.664 17.6619 110.207 16.9096C110.207 16.9096 107.994 17.1603 109.038 20.0031C109.038 20.0031 107.618 19.3328 107.659 17.8282C107.701 16.3225 109.872 15.153 111.334 15.487C112.796 15.8221 115.593 16.9506 115.343 19.8355ZM75.4288 2.65595C76.386 3.72771 79.0628 6.67899 80.7726 8.11122L81.4831 7.61091C80.71 6.9828 78.0405 4.73197 75.9429 1.9748C75.784 2.18698 75.6106 2.41724 75.4288 2.65595ZM72.1114 6.50417C72.8496 6.96109 75.0266 8.34993 77.5902 10.3524L80.0827 8.59707C79.3494 8.00152 77.6455 6.53673 74.7075 3.5939C74.2668 4.15811 73.8309 4.69701 73.4841 5.08641C73.1084 5.50596 72.6124 6.0123 72.1114 6.50417ZM60.0643 16.0536C58.0377 15.0843 55.6825 14.3272 53.2249 14.2983C53.2249 14.2983 55.7981 14.5768 59.4646 16.4659C59.6681 16.3297 59.8668 16.191 60.0643 16.0536ZM65.9163 19.9091C65.0915 19.193 63.3443 17.7885 61.0661 16.5612C60.8542 16.7046 60.6435 16.8469 60.4303 16.9867C61.9391 17.8391 63.5959 18.9603 65.313 20.4251C65.5117 20.2454 65.7296 20.0549 65.9163 19.9091ZM69.3022 16.7746C67.7357 15.3544 66.2883 13.9728 65.5972 13.3073C64.4256 14.2163 63.1528 15.1374 61.8476 16.0319C63.2684 16.8409 64.8783 17.9114 66.7122 19.3232C67.4082 18.6963 68.705 17.3834 69.3022 16.7746ZM77.2301 29.696C75.6756 27.9467 72.7508 25.4391 71.8056 24.6398C71.5431 24.8134 71.277 24.9858 71.0133 25.1534C72.6641 26.4024 75.5733 29.4392 76.5823 30.511C76.7533 30.2819 76.9761 30.0034 77.2301 29.696ZM81.0941 25.3631C79.3229 24.3818 77.3999 23.1232 75.6636 21.8959C75.1302 22.2997 74.0356 23.1159 72.7893 23.9755C75.3613 25.6874 77.3806 27.9322 78.0574 28.7279C79.2073 27.4054 80.5655 25.9334 81.0941 25.3631ZM76.8581 20.5963C72.7147 17.3617 68.3992 13.4327 67.0229 12.1632C66.7953 12.3525 66.5617 12.543 66.3233 12.7346C67.2781 13.7859 69.9199 16.5672 73.4155 19.1918C77.8358 22.5119 82.7666 26.4699 88.7162 27.3632C88.7162 27.3632 81.8744 24.5108 76.8581 20.5963ZM86.5789 20.0152C85.4446 18.8397 81.7612 15.094 78.4306 12.4682C75.1 9.84365 72.215 7.83996 71.3456 7.24561C71.0819 7.49637 70.8387 7.72664 70.6304 7.92074C71.7225 8.67423 75.4107 11.2445 78.3451 13.5749C81.3494 15.9584 84.9497 19.6969 85.8889 20.6879C86.0262 20.5505 86.1839 20.3925 86.3633 20.2117C86.4199 20.1562 86.4934 20.0899 86.5789 20.0152ZM80.6149 16.7396C79.7431 15.9258 78.8123 15.1 77.8779 14.3405C77.2048 13.7943 76.5402 13.2675 75.8936 12.7684L72.634 15.6594C74.032 16.9289 75.6431 18.3129 77.359 19.6414L80.6149 16.7396ZM90.5922 17.0506C88.2261 15.4846 86.3525 13.9921 85.6144 13.3893L83.4843 15.4568C85.3097 17.1483 86.8221 18.6275 87.4928 19.2894C88.5428 18.4925 89.9624 17.4907 90.5922 17.0506ZM104.365 22.8664C104.871 22.9351 105.539 23.005 106.288 23.034C104.948 22.6084 98.1516 20.3768 93.6482 17.3195C89.9516 14.8107 87.6891 13.0433 86.7523 12.285L86.3513 12.6756C87.2291 13.5629 89.6 15.745 93.7747 18.1284C98.077 20.5842 102.642 22.2684 104.365 22.8664Z" fill="black"/>
<path fill-rule="evenodd" clip-rule="evenodd" d="M19.508 39.2047L19.2896 40.5075C19.3113 41.1967 19.523 41.7114 19.9332 42.0602C20.3501 42.4023 20.9253 42.5683 21.6756 42.5465C22.7144 42.5045 23.945 42.0065 25.3556 41.0525C26.7728 40.1051 28.2952 38.7386 29.9309 36.9612C30.8463 35.9652 31.6616 34.9475 32.3803 33.9028C33.1006 32.8532 33.7392 31.7231 34.2978 30.5125C34.6713 29.6657 34.8897 29.109 34.9531 28.8408C35.0181 28.5742 35.0498 28.3159 35.0498 28.0644C35.0281 27.4809 34.8563 27.0316 34.5329 26.7147C34.2127 26.3994 33.7709 26.2485 33.2056 26.2602C32.5837 26.2921 31.9701 26.4682 31.3732 26.7951C30.7779 27.1171 30.1593 27.434 29.5257 27.7324C29.4623 27.6737 29.404 27.6201 29.3506 27.5765C29.3023 27.5346 29.2539 27.5027 29.2222 27.4709C29.1856 27.439 29.1589 27.4222 29.1472 27.4222C29.6908 27.0735 30.3411 26.7197 31.1081 26.3575C31.8751 25.9869 32.5987 25.7941 33.2857 25.7723C34.1177 25.7304 34.788 25.9702 35.2999 26.495C35.8051 27.0198 36.0719 27.7224 36.0936 28.601L36.1086 28.9112C36.0986 28.9212 36.0936 28.943 36.0936 28.9749C36.0819 29.0772 36.0452 29.431 35.9868 30.0245C35.8051 30.935 35.3999 31.9528 34.7663 33.0779C34.1327 34.203 33.2857 35.3432 32.2269 36.5051C30.4528 38.4502 28.6203 40.0079 26.7128 41.1698C24.812 42.3385 23.1513 42.9438 21.739 42.9858C20.7702 43.0243 20.0349 42.8315 19.5397 42.4023C19.0395 41.973 18.7777 41.4432 18.7577 40.811C18.736 40.1806 18.8211 39.4948 19.0078 38.7654L18.7727 39.141C18.6493 39.3506 18.4642 39.6708 18.2141 40.1001C16.9936 42.2094 15.9815 43.6883 15.1678 44.5401C14.1707 45.5512 12.9719 46.3443 11.5829 46.9228C10.1873 47.4962 8.75003 47.7846 7.27439 47.7846C5.38857 47.7846 3.87625 47.3403 2.72575 46.4516C1.57525 45.5629 1 44.406 1 42.9858C1 41.8137 1.42018 40.8278 2.25721 40.0347C3.09424 39.2366 4.12636 38.8409 5.35689 38.8409C6.26228 38.8409 7.01761 39.0924 7.63121 39.5853C8.24981 40.0833 8.55161 40.7054 8.55161 41.4482C8.55161 42.3268 8.18478 43.0981 7.45613 43.7638C6.71915 44.4261 5.86878 44.7598 4.90336 44.7598C4.70661 44.7598 4.49985 44.738 4.29143 44.6994C4.083 44.6675 3.87625 44.6088 3.66782 44.5401C4.81332 44.2986 5.75706 43.8476 6.50072 43.1954C7.24771 42.5414 7.61454 41.8573 7.61454 41.133C7.61454 40.5763 7.41278 40.137 7.0026 39.815C6.59243 39.4881 6.04385 39.3288 5.35689 39.3288C4.32311 39.3288 3.43439 39.6926 2.6774 40.4203C1.92707 41.143 1.54857 42.0116 1.54857 43.0126C1.54857 44.2182 2.04879 45.2192 3.04589 46.0123C4.04632 46.8054 5.31354 47.2061 6.85421 47.2061C8.69667 47.2061 10.4741 46.5371 12.1949 45.1974C13.9206 43.8593 15.7964 41.6745 17.819 38.6531C16.7068 39.4193 15.673 39.9978 14.7093 40.3935C13.7455 40.7909 12.9085 40.9938 12.1899 40.9938C11.3061 40.9938 10.5925 40.7205 10.0589 40.1856C9.52203 39.644 9.25525 38.9314 9.25525 38.0427C9.25525 38.0327 9.25525 37.694 9.25525 37.6671C9.27692 37.5615 9.28693 37.4693 9.28693 37.4005C8.97346 37.4592 8.68 37.5078 8.40321 37.5397C8.13142 37.5716 7.85464 37.5866 7.58786 37.5866C6.33732 37.5866 5.32021 37.1976 4.52653 36.4096C3.73786 35.6282 3.34435 34.6155 3.34435 33.3831C3.34435 32.5581 3.54611 31.7281 3.95128 30.9032C4.35479 30.0782 4.93004 29.3186 5.66536 28.6278C6.45904 27.8934 7.33275 27.32 8.2865 26.9024C9.24524 26.4849 10.1606 26.2753 11.0343 26.2753C11.2745 26.2753 11.663 26.3189 12.2065 26.3994C12.2382 26.3994 12.2599 26.4045 12.2816 26.4145C9.97389 27.0198 8.04639 28.0426 6.50739 29.4729C4.96839 30.9082 4.20139 32.3552 4.20139 33.8056C4.20139 34.7815 4.50485 35.5695 5.12179 36.1732C5.73539 36.7835 6.53407 37.0836 7.5245 37.0836C7.79628 37.0836 8.07807 37.0618 8.37153 37.0249C8.66999 36.983 9.00514 36.9126 9.37697 36.8221C9.60707 35.7724 10.0756 34.701 10.7776 33.5926C11.4762 32.4894 12.4083 31.3693 13.5638 30.2291C15.508 28.3377 17.5055 26.8337 19.5614 25.7237C21.6173 24.6154 23.3964 24.0637 24.9037 24.0637C25.9258 24.0637 26.6978 24.2834 27.2247 24.7277C27.7466 25.172 28.0134 25.831 28.0134 26.6996C28.0134 26.7314 28.0084 26.8069 27.9984 26.9192C27.9867 27.0366 27.9817 27.1338 27.9817 27.2193C28.5086 27.4071 28.9071 27.6955 29.1739 28.0862C29.4407 28.4836 29.5691 28.9699 29.5691 29.5534C29.5691 30.2878 29.3656 31.0004 28.9621 31.6963C28.557 32.3921 27.9767 33.041 27.2147 33.6346C26.8312 33.9347 26.4527 34.1929 26.0859 34.3958C25.7124 34.5987 25.484 34.701 25.3872 34.701C25.3506 34.701 25.3072 34.6842 25.2655 34.6473C25.2222 34.6088 25.2005 34.5769 25.2005 34.545C25.2005 34.4277 25.3822 34.2566 25.7507 34.0252C26.0008 33.8593 26.1976 33.715 26.341 33.6027C27.2147 32.9655 27.875 32.3066 28.3218 31.6258C28.7704 30.9467 28.9938 30.266 28.9938 29.5869C28.9938 29.1459 28.9071 28.7938 28.7437 28.5205C28.5786 28.2472 28.2902 27.9957 27.885 27.7643C27.3481 29.6389 26.256 31.3106 24.6152 32.7778C22.9795 34.2516 21.5206 34.9843 20.2417 34.9843C19.6247 34.9843 19.1395 34.8234 18.7894 34.5031C18.4376 34.1862 18.2558 33.7469 18.2558 33.1953C18.2558 32.9655 18.2875 32.7191 18.3525 32.4676C18.4159 32.2093 18.5226 31.9042 18.6827 31.547C17.3671 32.761 16.0682 33.8173 14.7726 34.706C13.4737 35.6014 12.1582 36.3609 10.8159 36.978C10.6609 37.2882 10.5441 37.5816 10.4741 37.8449C10.4007 38.1131 10.3641 38.3697 10.3641 38.6212C10.3641 39.2097 10.5325 39.6658 10.8693 39.9978C11.2094 40.3248 11.678 40.4908 12.2816 40.4908C12.9352 40.4908 13.7605 40.2493 14.7576 39.7782C15.7481 39.302 17.122 38.477 18.8677 37.3033L18.9595 37.2446C20.1466 36.4045 20.8986 35.9854 21.2071 35.9854C21.2171 35.9854 21.2338 35.9904 21.2438 36.0021C21.2605 36.0122 21.2705 36.029 21.2705 36.0508C21.2705 36.1044 21.0837 36.3241 20.7169 36.7147C20.3501 37.1105 19.9449 37.9354 19.508 39.2047ZM11.2044 36.1732C12.0681 35.7875 13.0052 35.2627 14.0056 34.5937C15.0127 33.9246 16.0565 33.1215 17.1487 32.1892C17.4838 31.9092 17.974 31.4816 18.6176 30.9199C21.729 28.2103 24.2317 26.8538 26.1226 26.8538C26.266 26.8538 26.431 26.8706 26.6078 26.8924C26.7828 26.9192 27.0596 26.9729 27.4331 27.0416V26.6358C27.4331 25.9551 27.2197 25.4353 26.7929 25.0647C26.3677 24.7009 25.7607 24.5198 24.9671 24.5198C23.8432 24.5198 22.5227 24.9692 20.9987 25.8746C19.4697 26.78 17.814 28.108 16.0299 29.8535C15.0177 30.8126 14.124 31.8086 13.3354 32.8314C12.5517 33.8592 11.838 34.9743 11.2044 36.1732ZM27.3414 27.4977C27.1397 27.434 26.9479 27.3904 26.7612 27.3585C26.5761 27.325 26.3843 27.3099 26.1859 27.3099C25.4039 27.3099 24.6052 27.4759 23.7899 27.8129C22.9745 28.1449 22.1325 28.653 21.2705 29.3337C20.4768 29.939 19.8748 30.5661 19.4597 31.2083C19.0445 31.8522 18.8361 32.4826 18.8361 33.0997C18.8361 33.4736 18.9595 33.7955 19.2096 34.0571C19.4597 34.3204 19.7748 34.4495 20.1466 34.4495C21.3938 34.4495 22.7944 33.7318 24.3485 32.2915C25.9041 30.8545 26.9012 29.2532 27.3414 27.4977ZM32.8171 44.8822C31.9434 45.7926 31.1564 46.4684 30.4594 46.9127C29.7608 47.357 29.1322 47.5817 28.5736 47.5817C28.0201 47.5817 27.5882 47.404 27.2781 47.0569C26.9646 46.7031 26.8095 46.2269 26.8095 45.6216C26.8095 44.909 27.0596 44.1209 27.5665 43.249C28.0717 42.3821 28.7537 41.5773 29.6174 40.8328C30.4378 40.142 31.3115 39.6071 32.2369 39.2265C33.1639 38.8459 34.0593 38.6531 34.9214 38.6531C35.3482 38.6531 35.6884 38.7503 35.9385 38.9364C36.1836 39.1259 36.322 39.3824 36.3437 39.7027C36.6855 39.2366 36.9456 38.9532 37.1157 38.8576C37.2857 38.7654 37.5575 38.7168 37.936 38.7168C38.1328 38.7168 38.2878 38.7436 38.3996 38.7989C38.5163 38.8459 38.5763 38.9163 38.5763 39.0018C38.5763 39.0605 38.5379 39.1678 38.4729 39.312C38.4046 39.4629 38.3195 39.5904 38.2128 39.7094L34.2828 44.8503C34.0427 45.1773 33.8559 45.4757 33.7242 45.744C33.5841 46.0173 33.5158 46.2487 33.5158 46.4365C33.5158 46.5908 33.5575 46.7031 33.6425 46.7735C33.7292 46.8423 33.8659 46.8741 34.0643 46.8741C34.4695 46.8741 35.0548 46.6008 35.8118 46.0609C36.5721 45.5143 37.5042 44.7044 38.608 43.6279C38.9681 43.2742 39.3333 42.8902 39.7034 42.4777C39.9302 42.1642 40.1837 41.8573 40.4604 41.5572C41.2858 40.3617 42.2712 39.0119 43.4267 37.5078C45.3342 35.0816 46.9433 33.4736 48.2572 32.6922C49.5727 31.9042 50.7349 31.3643 51.7353 31.0641C52.7424 30.769 53.6362 30.593 54.4298 30.5343C55.2185 30.4756 55.7454 30.3901 56.0122 30.266C56.279 30.1486 56.6241 29.9072 57.051 29.5534C57.4778 29.1946 57.8396 28.8994 58.1431 28.6597C58.1631 28.6379 58.2115 28.6479 58.2915 28.6915C58.3665 28.7284 58.4199 28.7988 58.4349 28.8944L55.9855 30.9518C55.7621 31.1765 55.4419 31.4229 55.0384 31.6845C54.6333 31.9478 53.8079 32.0282 52.5607 31.9209C51.3202 31.8203 49.9946 32.2697 48.5823 33.2808C47.1767 34.2885 45.5577 36.2486 43.7252 39.1578C44.5139 38.7989 45.2325 38.6212 45.8778 38.6212C46.3563 38.6212 46.7398 38.7604 47.0216 39.0387C47.3101 39.317 47.4535 39.6876 47.4535 40.1588C47.4535 40.8177 47.155 41.6209 46.5631 42.5582C46.4314 42.7711 46.3613 42.8902 46.3613 42.922C46.3613 43.0444 46.4364 43.1518 46.5848 43.244C46.7398 43.3345 46.9149 43.3764 47.1233 43.3764C47.7519 43.3764 48.4072 43.0444 49.0942 42.3821C49.2809 42.1994 49.4443 42.0434 49.5861 41.911L55.4436 34.2784C55.4953 34.203 55.5653 34.1175 55.6454 34.0102C56.1989 33.2657 56.8542 32.8968 57.6112 32.8968C57.7379 32.8968 57.8447 32.922 57.9297 32.9756C58.0197 33.0242 58.0631 33.0879 58.0631 33.1634C58.0631 33.2657 57.9614 33.4736 57.7546 33.7905C57.5462 34.1057 57.1627 34.6088 56.6141 35.3113L51.2785 42.0921C52.8492 40.754 54.0047 39.8469 54.74 39.3875C55.4803 38.9213 56.0822 38.6849 56.5508 38.6849C56.8959 38.6849 57.1677 38.7872 57.3711 38.9901C57.5729 39.1946 57.6746 39.473 57.6746 39.815C57.6746 40.4421 57.0827 41.5454 55.8955 43.1249L55.8471 43.1903L55.507 43.6447C54.4148 45.0968 53.8663 45.9754 53.8663 46.2638C53.8663 46.4834 53.9146 46.6444 53.9997 46.735C54.0897 46.8322 54.2281 46.8741 54.4148 46.8741C54.7983 46.8741 55.3736 46.6058 56.1456 46.0609C56.9176 45.5193 57.818 44.738 58.8618 43.7252C59.342 43.254 59.8255 42.7342 60.3274 42.1725C60.4608 42.02 60.5808 41.8875 60.6842 41.7768L62.3083 39.6926C62.3399 39.649 62.3766 39.5904 62.43 39.5199C62.7968 39.0286 63.267 38.7822 63.8523 38.7822C64.0607 38.7822 64.2308 38.809 64.3575 38.8576C64.4859 38.9113 64.5559 38.98 64.5559 39.0773C64.5559 39.1511 64.5242 39.2366 64.4709 39.3439C64.4108 39.4462 64.2991 39.6071 64.134 39.815L60.0123 45.1504C59.8355 45.3701 59.6988 45.6048 59.5921 45.8563C59.4854 46.1028 59.437 46.3275 59.437 46.5321C59.437 46.6444 59.4787 46.7467 59.5704 46.8372C59.6554 46.9228 59.7622 46.9714 59.8905 46.9714C60.3574 46.9714 61.1844 46.4298 62.3766 45.3533C63.5688 44.2769 64.8744 42.8583 66.3017 41.1011C66.4884 40.8697 66.7235 40.5713 67.0053 40.2074C67.7189 39.2953 68.4376 38.8409 69.1579 38.8409C69.3013 38.8409 69.428 38.8727 69.5397 38.9364C69.6464 38.9951 69.6998 39.0655 69.6998 39.141C69.6998 39.1896 69.6464 39.2953 69.5397 39.4629C69.428 39.6222 69.2363 39.8754 68.9545 40.2225L65.5997 44.5401C65.2745 44.9677 65.0128 45.3651 64.806 45.7339C64.5926 46.0978 64.4909 46.3543 64.4909 46.5002C64.4909 46.6058 64.5342 46.7031 64.6243 46.7836C64.7093 46.8691 64.806 46.9127 64.896 46.9127C65.2695 46.9127 65.8331 46.6394 66.5901 46.1028C67.3454 45.5629 68.2508 44.7698 69.3113 43.7252C69.8015 43.244 70.2917 42.7242 70.7869 42.1608C70.9854 41.9361 71.1488 41.7567 71.2788 41.6226L71.5906 41.2302C72.3426 40.2761 73.0713 39.3707 73.7749 38.5139C73.7966 38.5357 73.9083 38.5407 74.11 38.5357C74.3135 38.5307 74.5369 38.5256 74.7753 38.5139C75.0171 38.5038 75.2772 38.4954 75.5673 38.4854L71.0154 44.4261C70.8086 44.7111 70.5418 45.07 70.2167 45.5093C69.2113 46.8909 68.2892 47.5817 67.4588 47.5817C67.3404 47.5817 67.2404 47.5549 67.1537 47.5012C67.0637 47.4526 67.022 47.3939 67.022 47.3302C67.022 47.1961 67.122 46.9663 67.3304 46.6494C67.5222 46.3527 67.8523 45.9217 68.3109 45.3533C67.5605 46.0207 66.9069 46.5254 66.35 46.8691C65.6414 47.3034 65.0244 47.523 64.4909 47.523C64.1174 47.523 63.8256 47.4107 63.6172 47.191C63.4104 46.9714 63.3037 46.6662 63.3037 46.2638C63.3037 46.0223 63.352 45.7759 63.4471 45.5193C63.5371 45.2628 63.7039 44.9459 63.9423 44.572C62.9569 45.5948 62.1065 46.3443 61.3862 46.8255C60.6675 47.3084 60.0389 47.5499 59.4954 47.5499C59.0902 47.5499 58.765 47.4308 58.5216 47.1961C58.2765 46.9596 58.1531 46.6494 58.1531 46.2638C58.1531 45.8245 58.2815 45.3533 58.5316 44.8453C58.5666 44.7748 58.605 44.7011 58.6483 44.6223C58.59 44.6776 58.5299 44.7346 58.4683 44.7916C57.4828 45.7339 56.6091 46.4298 55.8588 46.8909C55.1018 47.352 54.4632 47.5817 53.9296 47.5817C53.5044 47.5817 53.1626 47.4576 52.9075 47.2061C52.6524 46.9546 52.524 46.6226 52.524 46.2001C52.524 45.8144 52.6741 45.3483 52.9725 44.8067C53.2643 44.2618 53.8446 43.4318 54.7066 42.3117C55.1868 41.6947 55.5703 41.1648 55.8471 40.7205C56.1306 40.2761 56.269 39.981 56.269 39.8469C56.269 39.7413 56.2373 39.6558 56.1623 39.5904C56.0872 39.5199 55.9972 39.4881 55.8788 39.4881C55.3636 39.4881 54.2864 40.1739 52.6574 41.5572C51.0334 42.9388 49.5094 44.5669 48.0938 46.4365L43.2416 52.7444C43.1766 52.8299 43.1016 52.9322 43.0065 53.0613C42.468 53.784 41.8194 54.1428 41.0574 54.1428C40.934 54.1428 40.8239 54.116 40.7372 54.0623C40.6472 54.0137 40.6038 53.955 40.6038 53.8913C40.6038 53.6817 40.934 53.1619 41.5909 52.337C41.7877 52.0754 41.9411 51.8725 42.0528 51.7266L48.3472 43.524C47.8903 43.7722 47.4518 43.8962 47.0333 43.8962C46.8032 43.8962 46.6014 43.8593 46.4264 43.7906C46.2446 43.7252 46.0795 43.6229 45.9245 43.4854C44.834 44.8453 43.8152 45.8681 42.8732 46.5539C41.9311 47.2397 41.074 47.5817 40.2904 47.5817C39.7518 47.5817 39.32 47.399 39.0065 47.0401C38.6863 46.6813 38.5279 46.1833 38.5279 45.5562C38.5279 45.1085 38.613 44.6441 38.7864 44.1645C38.578 44.3657 38.3562 44.5753 38.1228 44.7916C37.0523 45.7809 36.1519 46.4952 35.4266 46.9278C34.708 47.3621 34.0693 47.5817 33.5158 47.5817C33.1323 47.5817 32.8338 47.4912 32.6204 47.3084C32.407 47.1256 32.3019 46.8641 32.3019 46.5321C32.3019 46.2269 32.3436 45.9368 32.4336 45.6702C32.5187 45.3969 32.6471 45.1337 32.8171 44.8822ZM28.8554 47.0669C29.2272 47.0669 29.7341 46.8473 30.3727 46.4147C31.013 45.9804 31.6783 45.3869 32.3653 44.6357C33.4991 43.3982 34.3678 42.3704 34.9747 41.5505C35.5883 40.7322 35.8918 40.1688 35.8918 39.8804C35.8918 39.649 35.8168 39.473 35.6717 39.3556C35.5233 39.2315 35.3049 39.1729 35.0181 39.1729C34.4962 39.1729 33.8876 39.3824 33.1956 39.7932C32.5087 40.2074 31.78 40.801 31.023 41.5723C30.0859 42.5364 29.3606 43.4251 28.8554 44.25C28.3435 45.07 28.0884 45.744 28.0884 46.2638C28.0884 46.527 28.1518 46.7249 28.2852 46.8641C28.4136 46.9982 28.6053 47.0669 28.8554 47.0669ZM46.1429 39.2366C45.7177 39.2366 45.2058 39.4361 44.6156 39.8368C44.0187 40.2443 43.325 40.8596 42.5213 41.7014C41.5743 42.6705 40.8489 43.5324 40.3437 44.2886C39.8418 45.0431 39.5867 45.6384 39.5867 46.076C39.5867 46.3812 39.6734 46.6126 39.8368 46.7685C40.0086 46.9228 40.247 47.0032 40.5722 47.0032C41.0307 47.0032 41.6159 46.7568 42.3363 46.2739C43.0532 45.7876 43.7785 45.1286 44.5039 44.3037C45.2542 43.4787 45.8444 42.6806 46.2813 41.921C46.7182 41.1548 46.9366 40.5595 46.9366 40.1319C46.9366 39.8368 46.8682 39.6122 46.7298 39.4629C46.5848 39.312 46.3947 39.2366 46.1429 39.2366ZM75.4473 42.6068C75.1221 42.9338 74.802 43.1786 74.4885 43.3446C74.1684 43.5106 73.8649 43.5961 73.5731 43.5961C73.2964 43.5961 73.0663 43.5223 72.8962 43.3714C72.7261 43.2172 72.6344 43.0176 72.6344 42.7661C72.6344 42.3872 72.8378 42.0703 73.238 41.8087C73.6365 41.5454 74.1417 41.4163 74.7436 41.4163C74.8887 41.4163 75.0321 41.4214 75.1755 41.4381C75.3139 41.4549 75.4573 41.4817 75.6024 41.5086C76.8429 40.3986 77.7966 39.6289 78.4719 39.1896C79.1489 38.7503 79.6975 38.5307 80.1126 38.5307C80.4528 38.5307 80.7312 38.6162 80.933 38.7872C81.1348 38.9633 81.2365 39.1946 81.2365 39.4881C81.2365 39.7563 81.1781 39.966 81.0614 40.1051C80.948 40.2493 80.7846 40.3181 80.5662 40.3181C80.3994 40.3181 80.2677 40.2661 80.166 40.1638C80.0643 40.0565 80.0176 39.9223 80.0176 39.7513V39.5199C80.0176 39.4244 79.9959 39.3506 79.9526 39.2902C79.9159 39.2315 79.8625 39.2047 79.7992 39.2047C79.489 39.2047 78.9988 39.4361 78.3335 39.9022C77.6683 40.3667 76.9279 41.0055 76.1176 41.8087C76.336 42.082 76.4911 42.3268 76.5861 42.5465C76.6778 42.7661 76.7262 42.9925 76.7262 43.2222C76.7262 43.6833 76.4594 44.2819 75.9325 45.0264C75.3989 45.7658 75.1338 46.2588 75.1338 46.5002C75.1338 46.6327 75.1755 46.7467 75.2505 46.8372C75.3306 46.9278 75.4323 46.9714 75.554 46.9714C75.9208 46.9714 76.4761 46.7199 77.2147 46.2168C77.96 45.7172 78.8021 45.0163 79.7341 44.1159C80.2344 43.6397 80.7246 43.1451 81.2064 42.6253C81.655 41.9931 82.2036 41.3962 82.8555 40.8328C83.6759 40.142 84.5496 39.6071 85.4766 39.2265C86.402 38.8459 87.2974 38.6531 88.1611 38.6531C88.5863 38.6531 88.9281 38.7503 89.1782 38.9364C89.4233 39.1259 89.5617 39.3824 89.5817 39.7027C89.9236 39.2366 90.1837 38.9532 90.3554 38.8576C90.5255 38.7654 90.7973 38.7168 91.1758 38.7168C91.3725 38.7168 91.5259 38.7436 91.6393 38.7989C91.756 38.8459 91.8144 38.9163 91.8144 39.0018C91.8144 39.0605 91.776 39.1678 91.7127 39.312C91.6443 39.4629 91.5576 39.5904 91.4526 39.7094L87.5209 44.8503C87.2824 45.1773 87.0957 45.4757 86.9623 45.744C86.8239 46.0173 86.7539 46.2487 86.7539 46.4365C86.7539 46.5908 86.7972 46.7031 86.8822 46.7735C86.9673 46.8423 87.1057 46.8741 87.3024 46.8741C87.7076 46.8741 88.2928 46.6008 89.0498 46.0609C89.8118 45.5143 90.7439 44.7044 91.8461 43.6279C92.3046 43.1786 92.7681 42.6806 93.2417 42.1407C93.7152 41.5941 93.992 41.3208 94.0787 41.3208C94.1371 41.3208 94.1837 41.3375 94.2154 41.3694C94.2471 41.4012 94.2638 41.4482 94.2638 41.5086C94.2638 41.6796 93.992 42.0652 93.4601 42.6806C92.9215 43.2909 92.2246 43.9935 91.3609 44.7916C90.2904 45.7809 89.39 46.4952 88.6664 46.9278C87.9477 47.3621 87.3091 47.5817 86.7539 47.5817C86.3704 47.5817 86.0719 47.4912 85.8601 47.3084C85.6467 47.1256 85.54 46.8641 85.54 46.5321C85.54 46.2269 85.5817 45.9368 85.6734 45.6702C85.7584 45.3969 85.8868 45.1337 86.0569 44.8822C85.1832 45.7926 84.3945 46.4684 83.6975 46.9127C83.0006 47.357 82.3703 47.5817 81.8117 47.5817C81.2581 47.5817 80.8263 47.404 80.5178 47.0569C80.2027 46.7031 80.0493 46.2269 80.0493 45.6216C80.0493 45.2058 80.1343 44.7648 80.3061 44.2953C80.0159 44.5703 79.7075 44.8553 79.3773 45.1504C78.4036 46.0274 77.5832 46.6612 76.9229 47.0401C76.2626 47.4207 75.6757 47.6136 75.1655 47.6136C74.717 47.6136 74.3718 47.4962 74.1267 47.2547C73.8816 47.015 73.7599 46.6712 73.7599 46.2319C73.7599 45.6803 74.0417 45.0264 74.6053 44.2769C75.1655 43.5324 75.4473 42.9975 75.4473 42.6705V42.6068ZM75.6824 38.482C75.6424 38.4837 75.604 38.4854 75.5673 38.4854L75.569 38.482H75.6824ZM75.2289 42.1239C75.1005 42.082 74.9738 42.0485 74.8454 42.0283C74.717 42.0065 74.5786 41.9948 74.4302 41.9948C74.0567 41.9948 73.7482 42.0652 73.5148 42.2094C73.2747 42.3486 73.1513 42.5247 73.1513 42.7343C73.1513 42.8466 73.1996 42.9438 73.2963 43.0176C73.3864 43.088 73.5148 43.1249 73.6682 43.1249C73.8766 43.1249 74.115 43.0394 74.3918 42.8583C74.6703 42.6806 74.9471 42.4341 75.2289 42.1239ZM82.0935 47.0669C82.467 47.0669 82.9739 46.8473 83.6125 46.4147C84.2511 45.9804 84.9181 45.3869 85.6034 44.6357C86.7388 43.3982 87.6076 42.3704 88.2145 41.5505C88.8264 40.7322 89.1299 40.1688 89.1299 39.8804C89.1299 39.649 89.0548 39.473 88.9115 39.3556C88.7631 39.2315 88.543 39.1729 88.2562 39.1729C87.7343 39.1729 87.1273 39.3824 86.4354 39.7932C85.7484 40.2074 85.0181 40.801 84.2611 41.5723C83.324 42.5364 82.6004 43.4251 82.0935 44.25C81.5833 45.07 81.3265 45.744 81.3265 46.2638C81.3265 46.527 81.3915 46.7249 81.5233 46.8641C81.6516 46.9982 81.8434 47.0669 82.0935 47.0669Z" fill="#DDAD67"/>
<path fill-rule="evenodd" clip-rule="evenodd" d="M109.48 46.9395C108.502 47.191 107.58 47.3771 106.716 47.4962C105.854 47.6186 105.05 47.6773 104.298 47.6773C102.924 47.6773 101.81 47.5063 100.965 47.1575C100.118 46.8154 99.6911 46.3711 99.6911 45.8245C99.6911 45.3869 99.9679 45.0264 100.521 44.753C101.07 44.4747 101.8 44.3355 102.706 44.3355C103.558 44.3355 104.49 44.4529 105.502 44.6893C106.509 44.9257 108.005 45.407 109.992 46.1414C111.553 45.5948 113.034 44.6675 114.434 43.3563C115.835 42.0434 117.284 40.2074 118.779 37.8549C119.051 37.4374 119.44 36.8003 119.947 35.9535C122.216 32.2311 124.297 29.6137 126.188 28.108C125.421 26.9293 124.362 26.0305 123.015 25.4085C121.667 24.7931 120.095 24.4812 118.296 24.4812C116.527 24.4812 114.806 24.84 113.14 25.5594C111.468 26.2753 109.864 27.3417 108.325 28.7502C106.764 30.2073 105.555 31.718 104.698 33.2808C103.841 34.8452 103.409 36.3291 103.409 37.7275C103.409 39.0555 103.755 40.0833 104.448 40.811C105.14 41.5404 106.126 41.9043 107.404 41.9043C108.507 41.9043 109.704 41.584 110.998 40.9452C112.293 40.308 113.577 39.4042 114.844 38.2305C115.957 37.2077 116.82 36.1413 117.422 35.038C118.024 33.9347 118.328 32.8901 118.328 31.9042C118.328 31.3106 118.167 30.8327 117.847 30.4806C117.534 30.1218 117.107 29.944 116.58 29.944C115.6 29.944 114.476 30.3834 113.209 31.262C111.941 32.1406 110.706 33.3512 109.512 34.8871C108.815 35.7875 108.272 36.6242 107.878 37.3888C107.488 38.1601 107.249 38.8777 107.153 39.5484C107.133 39.3925 107.116 39.2366 107.106 39.0873C107.094 38.9314 107.089 38.7872 107.089 38.6531C107.089 37.7426 107.339 36.7684 107.84 35.7288C108.34 34.6842 109.06 33.6564 109.992 32.6436C110.908 31.6577 111.92 30.8814 113.022 30.3146C114.126 29.7412 115.17 29.4578 116.16 29.4578C117.032 29.4578 117.704 29.6925 118.167 30.1587C118.636 30.6198 118.869 31.2888 118.869 32.1574C118.869 33.0343 118.609 33.9884 118.076 35.0229C117.544 36.0507 116.804 37.0568 115.845 38.0427C114.514 39.4143 113.097 40.4908 111.6 41.2721C110.104 42.0602 108.735 42.4509 107.5 42.4509C105.976 42.4509 104.752 41.9629 103.815 40.9837C102.876 40.0028 102.407 38.7168 102.407 37.1155C102.407 35.3918 102.817 33.7637 103.633 32.2362C104.453 30.7103 105.657 29.3136 107.249 28.0493C108.82 26.7901 110.583 25.8058 112.538 25.0815C114.493 24.3588 116.373 24 118.167 24C120.02 24 121.667 24.3203 123.1 24.9641C124.537 25.6063 125.709 26.5554 126.609 27.7961C127.733 26.9511 128.845 26.3139 129.948 25.8897C131.05 25.4671 132.149 25.2542 133.229 25.2542C134.508 25.2542 135.503 25.5376 136.217 26.1043C136.926 26.6677 137.282 27.4591 137.282 28.4719C137.282 29.6238 136.787 30.6298 135.797 31.4984C134.8 32.3703 133.804 32.8046 132.809 32.8046C132.68 32.8046 132.59 32.7945 132.542 32.7727C132.489 32.7509 132.462 32.7191 132.462 32.6755C132.462 32.5531 132.664 32.4357 133.064 32.3233C133.462 32.216 133.804 32.0987 134.086 31.9696C134.95 31.5621 135.615 31.0473 136.09 30.427C136.564 29.8049 136.802 29.1409 136.802 28.44C136.802 27.5614 136.472 26.8874 135.818 26.4145C135.163 25.9433 134.231 25.7086 133.027 25.7086C132.068 25.7086 131.045 25.9333 129.959 26.3776C128.872 26.822 127.872 27.434 126.955 28.2036C127.371 28.8743 127.685 29.602 127.893 30.3951C128.1 31.1815 128.202 32.04 128.202 32.9605C128.202 34.6741 127.828 36.4263 127.078 38.2137C126.333 40.0028 125.277 41.6427 123.93 43.1249C122.598 44.582 121.124 45.6753 119.51 46.3979C117.901 47.1256 116.133 47.4912 114.204 47.4912C113.405 47.4912 112.612 47.4476 111.818 47.357C111.029 47.2665 110.247 47.1307 109.48 46.9395ZM110.978 46.4683C111.468 46.6394 111.973 46.7618 112.507 46.8473C113.039 46.9278 113.624 46.9714 114.269 46.9714C116.037 46.9714 117.614 46.6813 118.998 46.1028C120.383 45.5193 121.726 44.582 123.025 43.2859C124.479 41.8187 125.629 40.1588 126.469 38.3009C127.311 36.4465 127.733 34.6423 127.733 32.8968C127.733 32.0819 127.632 31.3156 127.43 30.598C127.226 29.8803 126.923 29.1895 126.518 28.5306C125.176 30.0094 123.845 31.9964 122.524 34.5031C121.204 37.0098 120.362 38.5357 119.993 39.0773C118.801 40.8177 117.459 42.2949 115.968 43.5106C114.483 44.7329 112.82 45.7172 110.978 46.4683ZM108.293 46.6612C106.162 46.0274 104.688 45.6317 103.878 45.4657C103.069 45.2997 102.402 45.2141 101.88 45.2141C101.369 45.2141 100.997 45.2678 100.757 45.3801C100.516 45.4875 100.4 45.6702 100.4 45.9217C100.4 46.2856 100.783 46.5908 101.55 46.8372C102.322 47.0837 103.324 47.2061 104.565 47.2061C105.22 47.2061 105.859 47.1575 106.482 47.0669C107.106 46.9714 107.713 46.8372 108.293 46.6612ZM127.797 44.3355C127.642 44.6256 127.535 44.904 127.472 45.1655C127.408 45.4288 127.376 45.6853 127.376 45.9486C127.376 46.2856 127.472 46.5472 127.668 46.7417C127.86 46.9328 128.127 47.0301 128.469 47.0301C129.107 47.0301 129.916 46.7249 130.901 46.1079C131.892 45.4875 132.994 44.5988 134.214 43.4418C134.651 43.0294 135.103 42.5582 135.578 42.0116C135.69 41.8825 135.792 41.7701 135.887 41.6729L136.239 41.2302C136.989 40.2761 137.718 39.3707 138.421 38.5139C138.443 38.5357 138.555 38.5407 138.756 38.5357C138.96 38.5306 139.183 38.5256 139.423 38.5139C139.663 38.5038 139.924 38.4954 140.214 38.4854L135.663 44.4261C135.455 44.7111 135.188 45.07 134.865 45.5093C133.858 46.8909 132.936 47.5817 132.105 47.5817C131.987 47.5817 131.887 47.5549 131.802 47.5012C131.71 47.4526 131.668 47.3939 131.668 47.3302C131.668 47.1961 131.768 46.9663 131.977 46.6494C132.185 46.3275 132.552 45.8513 133.069 45.2141L133.221 45.023C132.459 45.6635 131.73 46.1917 131.035 46.6058C129.948 47.2547 129.027 47.5817 128.265 47.5817C127.588 47.5817 127.056 47.357 126.661 46.9009C126.263 46.4466 126.066 45.8245 126.066 45.0381C126.066 44.2131 126.348 43.3614 126.901 42.4827C127.455 41.6041 128.233 40.7959 129.234 40.0665C129.836 39.6172 130.443 39.2684 131.045 39.0236C131.647 38.7771 132.185 38.6531 132.654 38.6531C133.006 38.6531 133.277 38.7386 133.469 38.9113C133.666 39.0873 133.761 39.3288 133.761 39.644C133.761 40.4472 133.212 41.2889 132.12 42.1608C131.03 43.0344 129.586 43.7571 127.797 44.3355ZM128.015 43.6615C129.527 43.1786 130.758 42.5632 131.707 41.8137C132.659 41.0692 133.132 40.3617 133.132 39.7027C133.132 39.5686 133.081 39.4512 132.962 39.3506C132.851 39.2533 132.712 39.2047 132.559 39.2047C132.142 39.2047 131.503 39.6172 130.641 40.4472C129.778 41.2839 128.899 42.3486 128.015 43.6615ZM140.094 42.6068C139.768 42.9338 139.45 43.1786 139.135 43.3446C138.815 43.5106 138.511 43.5961 138.219 43.5961C137.943 43.5961 137.713 43.5223 137.543 43.3714C137.372 43.2171 137.282 43.0176 137.282 42.7661C137.282 42.3872 137.484 42.0703 137.884 41.8087C138.283 41.5454 138.788 41.4163 139.39 41.4163C139.535 41.4163 139.678 41.4214 139.822 41.4381C139.96 41.4549 140.104 41.4817 140.249 41.5085C141.489 40.3985 142.443 39.6289 143.118 39.1896C143.795 38.7503 144.344 38.5307 144.759 38.5307C145.101 38.5307 145.378 38.6162 145.579 38.7872C145.781 38.9632 145.883 39.1946 145.883 39.4881C145.883 39.7563 145.824 39.9659 145.708 40.1051C145.596 40.2493 145.431 40.3181 145.213 40.3181C145.047 40.3181 144.914 40.2661 144.812 40.1638C144.711 40.0565 144.664 39.9223 144.664 39.7513V39.5199C144.664 39.4244 144.642 39.3506 144.601 39.2902C144.562 39.2315 144.509 39.2047 144.446 39.2047C144.135 39.2047 143.645 39.4361 142.982 39.9022C142.315 40.3667 141.574 41.0055 140.766 41.8087C140.982 42.082 141.137 42.3268 141.232 42.5465C141.324 42.7661 141.373 42.9925 141.373 43.2222C141.373 43.6833 141.106 44.2819 140.579 45.0264C140.045 45.7658 139.78 46.2588 139.78 46.5002C139.78 46.6327 139.822 46.7467 139.897 46.8372C139.977 46.9278 140.079 46.9714 140.2 46.9714C140.569 46.9714 141.122 46.7199 141.863 46.2168C142.608 45.7172 143.448 45.0163 144.382 44.1159C144.936 43.5877 145.478 43.0361 146.011 42.4542C146.45 41.8523 146.992 41.2688 147.642 40.7104C148.392 40.0515 149.169 39.5367 149.973 39.1728C150.783 38.804 151.512 38.6212 152.169 38.6212C152.647 38.6212 153.031 38.7604 153.313 39.0387C153.601 39.312 153.745 39.6876 153.745 40.1588C153.745 40.8177 153.446 41.6209 152.854 42.5582C152.722 42.7661 152.652 42.8902 152.652 42.922C152.652 43.0444 152.727 43.1518 152.876 43.244C153.031 43.3295 153.206 43.3764 153.414 43.3764C154.043 43.3764 154.698 43.0444 155.385 42.3821C155.57 42.1994 155.735 42.0434 155.877 41.911L161.735 34.2784C161.786 34.203 161.856 34.1175 161.936 34.0102C162.49 33.2657 163.145 32.8968 163.902 32.8968C164.029 32.8968 164.136 32.9219 164.221 32.9756C164.311 33.0242 164.354 33.0879 164.354 33.1634C164.354 33.2657 164.252 33.4736 164.046 33.7905C163.837 34.1057 163.454 34.6088 162.905 35.3113L157.568 42.0921C159.14 40.754 160.296 39.8469 161.031 39.3875C161.771 38.9213 162.372 38.6849 162.842 38.6849C163.187 38.6849 163.459 38.7872 163.662 38.9901C163.864 39.1946 163.966 39.473 163.966 39.815C163.966 40.4421 163.374 41.5454 162.187 43.1249L162.138 43.1903L161.798 43.6447C160.706 45.0968 160.157 45.9754 160.157 46.2638C160.157 46.4834 160.204 46.6444 160.291 46.735C160.381 46.8322 160.519 46.8741 160.706 46.8741C161.089 46.8741 161.665 46.6058 162.437 46.0609C163.209 45.5193 164.109 44.738 165.153 43.7252C165.51 43.3748 165.868 42.9975 166.235 42.5968C166.679 41.9747 167.22 41.3878 167.864 40.8328C168.684 40.142 169.558 39.6071 170.483 39.2265C171.411 38.8459 172.306 38.6531 173.168 38.6531C173.595 38.6531 173.935 38.7503 174.185 38.9364C174.43 39.1259 174.569 39.3824 174.59 39.7027C174.932 39.2366 175.192 38.9532 175.362 38.8576C175.532 38.7654 175.804 38.7168 176.183 38.7168C176.379 38.7168 176.534 38.7436 176.646 38.7989C176.763 38.8459 176.823 38.9163 176.823 39.0018C176.823 39.0605 176.785 39.1678 176.721 39.312C176.651 39.4629 176.566 39.5903 176.459 39.7094L172.529 44.8503C172.289 45.1773 172.103 45.4757 171.971 45.744C171.831 46.0173 171.762 46.2487 171.762 46.4365C171.762 46.5907 171.804 46.7031 171.891 46.7735C171.976 46.8423 172.114 46.8741 172.311 46.8741C172.716 46.8741 173.301 46.6008 174.058 46.0609C174.819 45.5143 175.751 44.7044 176.855 43.6279C177.311 43.1786 177.775 42.6806 178.249 42.1407C178.724 41.5941 179.001 41.3208 179.086 41.3208C179.144 41.3208 179.192 41.3375 179.224 41.3694C179.256 41.4012 179.272 41.4482 179.272 41.5085C179.272 41.6796 179.001 42.0652 178.467 42.6806C177.93 43.2909 177.231 43.9935 176.369 44.7916C175.299 45.7809 174.399 46.4952 173.673 46.9278C172.955 47.3621 172.316 47.5817 171.762 47.5817C171.379 47.5817 171.08 47.4912 170.867 47.3084C170.654 47.1256 170.549 46.8641 170.549 46.5321C170.549 46.2269 170.59 45.9368 170.68 45.6702C170.767 45.3969 170.894 45.1337 171.065 44.8822C170.19 45.7926 169.403 46.4684 168.706 46.9127C168.007 47.357 167.379 47.5817 166.82 47.5817C166.267 47.5817 165.835 47.404 165.525 47.0569C165.211 46.7031 165.056 46.2269 165.056 45.6216C165.056 45.1924 165.148 44.7346 165.331 44.2483C165.15 44.4227 164.959 44.6038 164.759 44.7916C163.774 45.7339 162.9 46.4298 162.148 46.8909C161.393 47.352 160.753 47.5817 160.221 47.5817C159.796 47.5817 159.454 47.4576 159.199 47.2061C158.944 46.9546 158.815 46.6226 158.815 46.2001C158.815 45.8144 158.964 45.3483 159.262 44.8067C159.555 44.2618 160.136 43.4318 160.998 42.3117C161.478 41.6947 161.861 41.1648 162.138 40.7205C162.42 40.2761 162.56 39.981 162.56 39.8469C162.56 39.7413 162.528 39.6557 162.453 39.5904C162.378 39.5199 162.288 39.4881 162.17 39.4881C161.653 39.4881 160.578 40.1739 158.949 41.5572C157.324 42.9388 155.8 44.5669 154.383 46.4365L149.533 52.7444C149.468 52.8299 149.393 52.9322 149.298 53.0613C148.759 53.784 148.11 54.1428 147.348 54.1428C147.225 54.1428 147.115 54.116 147.028 54.0623C146.938 54.0137 146.895 53.955 146.895 53.8913C146.895 53.6817 147.225 53.1619 147.88 52.3369C148.077 52.0754 148.232 51.8725 148.344 51.7266L154.642 43.5206C154.181 43.7688 153.743 43.8912 153.324 43.8912C153.094 43.8912 152.893 43.8593 152.717 43.7906C152.536 43.7252 152.371 43.6229 152.216 43.4854C151.125 44.8453 150.106 45.8681 149.164 46.5539C148.222 47.2397 147.365 47.5817 146.581 47.5817C146.043 47.5817 145.611 47.3989 145.298 47.0401C144.977 46.6813 144.817 46.1833 144.817 45.5562C144.817 45.1135 144.904 44.6541 145.074 44.1779C144.751 44.4898 144.401 44.8134 144.025 45.1504C143.05 46.0274 142.23 46.6612 141.569 47.0401C140.909 47.4207 140.324 47.6136 139.812 47.6136C139.363 47.6136 139.018 47.4962 138.773 47.2547C138.528 47.015 138.406 46.6712 138.406 46.2319C138.406 45.6803 138.688 45.0264 139.252 44.2769C139.812 43.5324 140.094 42.9975 140.094 42.6705V42.6068ZM140.329 38.482C140.29 38.4837 140.252 38.4854 140.214 38.4854L140.217 38.482H140.329ZM139.875 42.1239C139.749 42.082 139.62 42.0485 139.492 42.0283C139.363 42.0065 139.227 41.9948 139.077 41.9948C138.703 41.9948 138.395 42.0652 138.161 42.2094C137.921 42.3486 137.798 42.5247 137.798 42.7342C137.798 42.8466 137.846 42.9438 137.943 43.0176C138.033 43.088 138.161 43.1249 138.315 43.1249C138.523 43.1249 138.761 43.0394 139.038 42.8583C139.317 42.6806 139.593 42.4341 139.875 42.1239ZM152.434 39.2366C152.009 39.2366 151.497 39.4361 150.907 39.8368C150.31 40.2443 149.616 40.8596 148.812 41.7014C147.865 42.6705 147.14 43.5324 146.635 44.2886C146.133 45.0431 145.878 45.6384 145.878 46.076C145.878 46.3812 145.963 46.6126 146.128 46.7685C146.3 46.9228 146.538 47.0032 146.863 47.0032C147.322 47.0032 147.907 46.7568 148.626 46.2738C149.344 45.7876 150.07 45.1286 150.793 44.3037C151.545 43.4787 152.136 42.6806 152.572 41.921C153.009 41.1548 153.228 40.5595 153.228 40.1319C153.228 39.8368 153.158 39.6122 153.021 39.4629C152.876 39.312 152.684 39.2366 152.434 39.2366ZM167.102 47.0669C167.474 47.0669 167.981 46.8473 168.619 46.4147C169.26 45.9804 169.925 45.3869 170.612 44.6357C171.746 43.3982 172.614 42.3704 173.221 41.5505C173.835 40.7322 174.138 40.1688 174.138 39.8804C174.138 39.649 174.063 39.473 173.918 39.3556C173.77 39.2315 173.551 39.1728 173.265 39.1728C172.743 39.1728 172.136 39.3824 171.442 39.7932C170.755 40.2074 170.027 40.801 169.27 41.5723C168.333 42.5364 167.609 43.4251 167.102 44.25C166.59 45.0699 166.335 45.744 166.335 46.2638C166.335 46.527 166.398 46.7249 166.532 46.8641C166.66 46.9982 166.852 47.0669 167.102 47.0669Z" fill="#DDAD67"/>
<path d="M75.5673 38.4854C75.2772 38.4954 75.0171 38.5038 74.7753 38.5139C74.5369 38.5256 74.3135 38.5307 74.11 38.5357C73.9083 38.5407 73.7966 38.5357 73.7749 38.5139C73.0713 39.3707 72.3426 40.2761 71.5906 41.2302L71.2788 41.6226C71.1488 41.7567 70.9853 41.9361 70.7869 42.1608C70.2917 42.7242 69.8015 43.244 69.3113 43.7252C68.2508 44.7698 67.3454 45.5629 66.5901 46.1028C65.8331 46.6394 65.2695 46.9127 64.896 46.9127C64.806 46.9127 64.7093 46.8691 64.6243 46.7836C64.5342 46.7031 64.4909 46.6058 64.4909 46.5002C64.4909 46.3543 64.5926 46.0978 64.806 45.7339C65.0128 45.3651 65.2745 44.9677 65.5997 44.5401L68.9545 40.2225C69.2363 39.8754 69.428 39.6222 69.5397 39.4629C69.6464 39.2953 69.6998 39.1896 69.6998 39.141C69.6998 39.0655 69.6464 38.9951 69.5397 38.9364C69.428 38.8727 69.3013 38.8409 69.1579 38.8409C68.4376 38.8409 67.7189 39.2953 67.0053 40.2074C66.7235 40.5713 66.4884 40.8697 66.3017 41.1011C64.8744 42.8583 63.5688 44.2769 62.3766 45.3533C61.1844 46.4298 60.3574 46.9714 59.8905 46.9714C59.7622 46.9714 59.6554 46.9228 59.5704 46.8372C59.4787 46.7467 59.437 46.6444 59.437 46.5321C59.437 46.3275 59.4854 46.1028 59.5921 45.8563C59.6988 45.6048 59.8355 45.3701 60.0123 45.1504L64.134 39.815C64.2991 39.6071 64.4108 39.4462 64.4709 39.3439C64.5242 39.2366 64.5559 39.1511 64.5559 39.0773C64.5559 38.98 64.4859 38.9113 64.3575 38.8576C64.2308 38.809 64.0607 38.7822 63.8523 38.7822C63.267 38.7822 62.7968 39.0286 62.43 39.5199C62.3766 39.5904 62.3399 39.649 62.3083 39.6926L60.6842 41.7768C60.5808 41.8875 60.4608 42.02 60.3274 42.1725C59.8255 42.7342 59.342 43.254 58.8618 43.7252C57.818 44.738 56.9176 45.5193 56.1456 46.0609C55.3736 46.6058 54.7983 46.8741 54.4148 46.8741C54.2281 46.8741 54.0897 46.8322 53.9997 46.735C53.9146 46.6444 53.8663 46.4834 53.8663 46.2638C53.8663 45.9754 54.4148 45.0968 55.507 43.6447L55.8471 43.1903L55.8955 43.1249C57.0827 41.5454 57.6746 40.4421 57.6746 39.815C57.6746 39.473 57.5729 39.1946 57.3711 38.9901C57.1677 38.7872 56.8959 38.6849 56.5508 38.6849C56.0822 38.6849 55.4803 38.9213 54.74 39.3875C54.0047 39.8469 52.8492 40.754 51.2785 42.0921L56.6141 35.3113C57.1627 34.6088 57.5462 34.1057 57.7546 33.7905C57.9614 33.4736 58.0631 33.2657 58.0631 33.1634C58.0631 33.0879 58.0197 33.0242 57.9297 32.9756C57.8447 32.922 57.7379 32.8968 57.6112 32.8968C56.8542 32.8968 56.1989 33.2657 55.6454 34.0102C55.5653 34.1175 55.4953 34.203 55.4436 34.2784L49.5861 41.911C49.4443 42.0434 49.2809 42.1994 49.0942 42.3821C48.4072 43.0444 47.7519 43.3764 47.1233 43.3764C46.9149 43.3764 46.7398 43.3345 46.5848 43.244C46.4364 43.1518 46.3613 43.0444 46.3613 42.922C46.3613 42.8902 46.4314 42.7711 46.5631 42.5582C47.155 41.6209 47.4535 40.8177 47.4535 40.1588C47.4535 39.6876 47.3101 39.317 47.0216 39.0387C46.7398 38.7604 46.3563 38.6212 45.8778 38.6212C45.2325 38.6212 44.5139 38.7989 43.7252 39.1578C45.5577 36.2486 47.1767 34.2885 48.5823 33.2808C49.9946 32.2697 51.3202 31.8203 52.5607 31.9209C53.8079 32.0282 54.6333 31.9478 55.0384 31.6845C55.4419 31.4229 55.7621 31.1765 55.9855 30.9518L58.4349 28.8944C58.4199 28.7988 58.3665 28.7284 58.2915 28.6915C58.2115 28.6479 58.1631 28.6379 58.1431 28.6597C57.8396 28.8994 57.4778 29.1946 57.051 29.5534C56.6241 29.9072 56.279 30.1486 56.0122 30.266C55.7454 30.3901 55.2185 30.4756 54.4298 30.5343C53.6362 30.593 52.7424 30.769 51.7353 31.0641C50.7349 31.3643 49.5727 31.9042 48.2572 32.6922C46.9433 33.4736 45.3342 35.0816 43.4267 37.5078C42.2712 39.0119 41.2858 40.3617 40.4604 41.5572C40.1837 41.8573 39.9302 42.1642 39.7034 42.4777C39.3333 42.8902 38.9681 43.2742 38.608 43.6279C37.5042 44.7044 36.5721 45.5143 35.8118 46.0609C35.0548 46.6008 34.4695 46.8741 34.0643 46.8741C33.8659 46.8741 33.7292 46.8423 33.6425 46.7735C33.5575 46.7031 33.5158 46.5908 33.5158 46.4365C33.5158 46.2487 33.5841 46.0173 33.7242 45.744C33.8559 45.4757 34.0427 45.1773 34.2828 44.8503L38.2128 39.7094C38.3195 39.5904 38.4046 39.4629 38.4729 39.312C38.5379 39.1678 38.5763 39.0605 38.5763 39.0018C38.5763 38.9163 38.5163 38.8459 38.3996 38.7989C38.2878 38.7436 38.1328 38.7168 37.936 38.7168C37.5575 38.7168 37.2857 38.7654 37.1157 38.8576C36.9456 38.9532 36.6855 39.2366 36.3437 39.7027C36.322 39.3824 36.1836 39.1259 35.9385 38.9364C35.6884 38.7503 35.3482 38.6531 34.9214 38.6531C34.0593 38.6531 33.1639 38.8459 32.2369 39.2265C31.3115 39.6071 30.4378 40.142 29.6174 40.8328C28.7537 41.5773 28.0717 42.3821 27.5665 43.249C27.0596 44.1209 26.8095 44.909 26.8095 45.6216C26.8095 46.2269 26.9646 46.7031 27.2781 47.0569C27.5882 47.404 28.02 47.5817 28.5736 47.5817C29.1322 47.5817 29.7608 47.357 30.4594 46.9127C31.1564 46.4684 31.9434 45.7926 32.8171 44.8822C32.6471 45.1337 32.5187 45.3969 32.4336 45.6702C32.3436 45.9368 32.3019 46.2269 32.3019 46.5321C32.3019 46.8641 32.407 47.1256 32.6204 47.3084C32.8338 47.4912 33.1323 47.5817 33.5158 47.5817C34.0693 47.5817 34.708 47.3621 35.4266 46.9278C36.1519 46.4952 37.0523 45.7809 38.1228 44.7916C38.3562 44.5753 38.578 44.3657 38.7864 44.1645C38.613 44.6441 38.5279 45.1085 38.5279 45.5562C38.5279 46.1833 38.6863 46.6813 39.0065 47.0401C39.3199 47.399 39.7518 47.5817 40.2904 47.5817C41.074 47.5817 41.9311 47.2397 42.8732 46.5539C43.8152 45.8681 44.834 44.8453 45.9245 43.4854C46.0795 43.6229 46.2446 43.7252 46.4264 43.7906C46.6014 43.8593 46.8032 43.8962 47.0333 43.8962C47.4518 43.8962 47.8903 43.7721 48.3472 43.524L42.0528 51.7266C41.9411 51.8725 41.7877 52.0754 41.5909 52.337C40.934 53.1619 40.6038 53.6817 40.6038 53.8913C40.6038 53.955 40.6472 54.0137 40.7372 54.0623C40.8239 54.116 40.934 54.1428 41.0574 54.1428C41.8194 54.1428 42.468 53.784 43.0065 53.0613C43.1016 52.9322 43.1766 52.8299 43.2416 52.7444L48.0938 46.4365C49.5094 44.5669 51.0334 42.9388 52.6574 41.5572C54.2864 40.1739 55.3636 39.4881 55.8788 39.4881C55.9972 39.4881 56.0872 39.5199 56.1622 39.5904C56.2373 39.6558 56.269 39.7413 56.269 39.8469C56.269 39.981 56.1306 40.2761 55.8471 40.7205C55.5703 41.1648 55.1868 41.6947 54.7066 42.3117C53.8446 43.4318 53.2643 44.2618 52.9725 44.8067C52.6741 45.3483 52.524 45.8144 52.524 46.2001C52.524 46.6226 52.6524 46.9546 52.9075 47.2061C53.1626 47.4576 53.5044 47.5817 53.9296 47.5817C54.4632 47.5817 55.1018 47.352 55.8588 46.8909C56.6091 46.4298 57.4828 45.7339 58.4683 44.7916C58.5299 44.7346 58.59 44.6776 58.6483 44.6223C58.605 44.7011 58.5666 44.7748 58.5316 44.8453C58.2815 45.3533 58.1531 45.8245 58.1531 46.2638C58.1531 46.6494 58.2765 46.9596 58.5216 47.1961C58.7651 47.4308 59.0902 47.5499 59.4954 47.5499C60.0389 47.5499 60.6675 47.3084 61.3862 46.8255C62.1065 46.3443 62.9569 45.5948 63.9423 44.572C63.7039 44.9459 63.5371 45.2628 63.4471 45.5193C63.352 45.7759 63.3037 46.0223 63.3037 46.2638C63.3037 46.6662 63.4104 46.9714 63.6172 47.191C63.8256 47.4107 64.1174 47.523 64.4909 47.523C65.0244 47.523 65.6414 47.3034 66.35 46.8691C66.9069 46.5254 67.5605 46.0207 68.3109 45.3533C67.8523 45.9217 67.5222 46.3527 67.3304 46.6494C67.122 46.9663 67.022 47.1961 67.022 47.3302C67.022 47.3939 67.0637 47.4526 67.1537 47.5012C67.2404 47.5549 67.3404 47.5817 67.4588 47.5817C68.2892 47.5817 69.2113 46.8909 70.2167 45.5093C70.5418 45.07 70.8086 44.7111 71.0154 44.4261L75.5673 38.4854ZM75.5673 38.4854C75.604 38.4854 75.6424 38.4837 75.6824 38.482H75.569L75.5673 38.4854ZM140.214 38.4854C139.924 38.4954 139.663 38.5038 139.423 38.5139C139.183 38.5256 138.96 38.5306 138.756 38.5357C138.555 38.5407 138.443 38.5357 138.421 38.5139C137.718 39.3707 136.989 40.2761 136.239 41.2302L135.887 41.6729C135.792 41.7701 135.69 41.8825 135.578 42.0116C135.103 42.5582 134.651 43.0294 134.214 43.4418C132.994 44.5988 131.892 45.4875 130.901 46.1079C129.916 46.7249 129.107 47.0301 128.469 47.0301C128.127 47.0301 127.86 46.9328 127.668 46.7417C127.472 46.5472 127.376 46.2856 127.376 45.9486C127.376 45.6853 127.408 45.4288 127.472 45.1655C127.535 44.904 127.642 44.6256 127.797 44.3355C129.586 43.7571 131.03 43.0344 132.12 42.1608C133.212 41.2889 133.761 40.4472 133.761 39.644C133.761 39.3288 133.666 39.0873 133.469 38.9113C133.277 38.7386 133.006 38.6531 132.654 38.6531C132.185 38.6531 131.647 38.7771 131.045 39.0236C130.443 39.2684 129.836 39.6172 129.234 40.0665C128.233 40.7959 127.455 41.6041 126.901 42.4827C126.348 43.3614 126.066 44.2131 126.066 45.0381C126.066 45.8245 126.263 46.4466 126.661 46.901C127.056 47.357 127.588 47.5817 128.265 47.5817C129.027 47.5817 129.948 47.2547 131.035 46.6058C131.73 46.1917 132.459 45.6635 133.221 45.023L133.069 45.2141C132.552 45.8513 132.185 46.3275 131.977 46.6494C131.768 46.9663 131.668 47.1961 131.668 47.3302C131.668 47.3939 131.71 47.4526 131.802 47.5012C131.887 47.5549 131.987 47.5817 132.105 47.5817C132.936 47.5817 133.858 46.8909 134.865 45.5093C135.188 45.07 135.455 44.7111 135.663 44.4261L140.214 38.4854ZM140.214 38.4854C140.252 38.4854 140.29 38.4837 140.329 38.482H140.217L140.214 38.4854ZM19.508 39.2047L19.2896 40.5075C19.3113 41.1967 19.523 41.7114 19.9332 42.0602C20.3501 42.4023 20.9253 42.5683 21.6756 42.5465C22.7144 42.5045 23.945 42.0065 25.3556 41.0525C26.7728 40.1051 28.2952 38.7386 29.9309 36.9612C30.8463 35.9652 31.6616 34.9475 32.3803 33.9028C33.1006 32.8532 33.7392 31.7231 34.2978 30.5125C34.6713 29.6657 34.8897 29.109 34.9531 28.8408C35.0181 28.5742 35.0498 28.3159 35.0498 28.0644C35.0281 27.4809 34.8563 27.0316 34.5329 26.7147C34.2127 26.3994 33.7709 26.2485 33.2056 26.2602C32.5837 26.2921 31.9701 26.4682 31.3732 26.7951C30.7779 27.1171 30.1593 27.434 29.5257 27.7324C29.4623 27.6737 29.404 27.6201 29.3506 27.5765C29.3023 27.5346 29.2539 27.5027 29.2222 27.4709C29.1856 27.439 29.1589 27.4222 29.1472 27.4222C29.6908 27.0735 30.3411 26.7197 31.1081 26.3575C31.8751 25.9869 32.5987 25.7941 33.2857 25.7723C34.1177 25.7304 34.788 25.9702 35.2999 26.495C35.8051 27.0198 36.0719 27.7224 36.0936 28.601L36.1086 28.9112C36.0986 28.9212 36.0936 28.943 36.0936 28.9749C36.0819 29.0772 36.0452 29.431 35.9868 30.0245C35.8051 30.935 35.3999 31.9528 34.7663 33.0779C34.1327 34.203 33.2857 35.3432 32.2269 36.5051C30.4528 38.4502 28.6203 40.0079 26.7128 41.1698C24.812 42.3385 23.1513 42.9438 21.739 42.9858C20.7702 43.0243 20.0349 42.8315 19.5397 42.4023C19.0395 41.973 18.7777 41.4432 18.7577 40.811C18.736 40.1806 18.8211 39.4948 19.0078 38.7654L18.7727 39.141C18.6493 39.3506 18.4642 39.6708 18.2141 40.1001C16.9936 42.2094 15.9815 43.6883 15.1678 44.5401C14.1707 45.5512 12.9719 46.3443 11.5829 46.9228C10.1873 47.4962 8.75003 47.7846 7.27439 47.7846C5.38857 47.7846 3.87625 47.3403 2.72575 46.4516C1.57525 45.5629 1 44.406 1 42.9858C1 41.8137 1.42018 40.8278 2.25721 40.0347C3.09424 39.2366 4.12636 38.8409 5.35689 38.8409C6.26228 38.8409 7.01761 39.0924 7.63121 39.5853C8.24981 40.0833 8.55161 40.7054 8.55161 41.4482C8.55161 42.3268 8.18478 43.0981 7.45613 43.7638C6.71915 44.4261 5.86878 44.7598 4.90336 44.7598C4.70661 44.7598 4.49985 44.738 4.29143 44.6994C4.083 44.6675 3.87625 44.6088 3.66782 44.5401C4.81332 44.2986 5.75706 43.8476 6.50072 43.1954C7.24771 42.5414 7.61454 41.8573 7.61454 41.133C7.61454 40.5763 7.41278 40.137 7.0026 39.815C6.59243 39.4881 6.04385 39.3288 5.35689 39.3288C4.32311 39.3288 3.43439 39.6926 2.6774 40.4204C1.92707 41.143 1.54857 42.0116 1.54857 43.0126C1.54857 44.2182 2.04879 45.2192 3.04589 46.0123C4.04632 46.8054 5.31354 47.2061 6.85421 47.2061C8.69667 47.2061 10.4741 46.5371 12.1949 45.1974C13.9206 43.8593 15.7964 41.6745 17.819 38.6531C16.7068 39.4193 15.673 39.9978 14.7093 40.3935C13.7455 40.7909 12.9085 40.9938 12.1899 40.9938C11.3061 40.9938 10.5925 40.7205 10.0589 40.1856C9.52203 39.644 9.25525 38.9314 9.25525 38.0427C9.25525 38.0327 9.25525 37.694 9.25525 37.6671C9.27692 37.5615 9.28693 37.4693 9.28693 37.4005C8.97346 37.4592 8.68 37.5078 8.40321 37.5397C8.13142 37.5716 7.85464 37.5867 7.58786 37.5867C6.33732 37.5867 5.32021 37.1976 4.52653 36.4096C3.73786 35.6282 3.34435 34.6155 3.34435 33.3831C3.34435 32.5581 3.54611 31.7281 3.95128 30.9032C4.35479 30.0782 4.93004 29.3186 5.66536 28.6278C6.45904 27.8934 7.33275 27.32 8.28649 26.9024C9.24524 26.4849 10.1606 26.2753 11.0343 26.2753C11.2745 26.2753 11.663 26.3189 12.2065 26.3994C12.2382 26.3994 12.2599 26.4045 12.2816 26.4145C9.97389 27.0198 8.04639 28.0426 6.50739 29.4729C4.96839 30.9082 4.20139 32.3552 4.20139 33.8056C4.20139 34.7815 4.50485 35.5695 5.12179 36.1732C5.73539 36.7835 6.53407 37.0836 7.5245 37.0836C7.79628 37.0836 8.07807 37.0618 8.37153 37.0249C8.66999 36.983 9.00514 36.9126 9.37697 36.8221C9.60707 35.7724 10.0756 34.701 10.7776 33.5926C11.4762 32.4894 12.4083 31.3693 13.5638 30.2291C15.508 28.3377 17.5055 26.8337 19.5614 25.7237C21.6173 24.6154 23.3964 24.0637 24.9037 24.0637C25.9258 24.0637 26.6978 24.2834 27.2247 24.7277C27.7466 25.172 28.0134 25.831 28.0134 26.6996C28.0134 26.7314 28.0084 26.8069 27.9984 26.9192C27.9867 27.0366 27.9817 27.1338 27.9817 27.2193C28.5086 27.4071 28.9071 27.6955 29.1739 28.0862C29.4407 28.4836 29.5691 28.9699 29.5691 29.5534C29.5691 30.2878 29.3656 31.0004 28.9621 31.6963C28.557 32.3921 27.9767 33.041 27.2147 33.6346C26.8312 33.9347 26.4527 34.1929 26.0859 34.3958C25.7124 34.5987 25.484 34.701 25.3872 34.701C25.3506 34.701 25.3072 34.6842 25.2655 34.6473C25.2222 34.6088 25.2005 34.5769 25.2005 34.545C25.2005 34.4277 25.3822 34.2566 25.7507 34.0252C26.0008 33.8593 26.1976 33.715 26.341 33.6027C27.2147 32.9655 27.875 32.3066 28.3219 31.6258C28.7704 30.9467 28.9938 30.266 28.9938 29.5869C28.9938 29.1459 28.9071 28.7938 28.7437 28.5205C28.5786 28.2472 28.2902 27.9957 27.885 27.7643C27.3481 29.6389 26.256 31.3106 24.6152 32.7778C22.9795 34.2516 21.5206 34.9843 20.2417 34.9843C19.6247 34.9843 19.1395 34.8234 18.7894 34.5031C18.4376 34.1862 18.2558 33.7469 18.2558 33.1953C18.2558 32.9655 18.2875 32.7191 18.3525 32.4676C18.4159 32.2093 18.5226 31.9042 18.6827 31.547C17.3671 32.761 16.0682 33.8173 14.7726 34.706C13.4737 35.6014 12.1582 36.3609 10.8159 36.978C10.6609 37.2882 10.5441 37.5816 10.4741 37.8449C10.4007 38.1131 10.3641 38.3697 10.3641 38.6212C10.3641 39.2097 10.5325 39.6658 10.8693 39.9978C11.2094 40.3248 11.678 40.4908 12.2816 40.4908C12.9352 40.4908 13.7605 40.2493 14.7576 39.7782C15.7481 39.302 17.122 38.477 18.8677 37.3033L18.9595 37.2446C20.1466 36.4045 20.8986 35.9854 21.2071 35.9854C21.2171 35.9854 21.2338 35.9904 21.2438 36.0021C21.2605 36.0122 21.2705 36.029 21.2705 36.0508C21.2705 36.1044 21.0837 36.3241 20.7169 36.7147C20.3501 37.1105 19.9449 37.9354 19.508 39.2047ZM11.2044 36.1732C12.0681 35.7875 13.0052 35.2627 14.0056 34.5937C15.0127 33.9246 16.0565 33.1215 17.1487 32.1892C17.4838 31.9092 17.974 31.4816 18.6176 30.9199C21.729 28.2103 24.2317 26.8538 26.1226 26.8538C26.266 26.8538 26.431 26.8706 26.6078 26.8924C26.7828 26.9192 27.0596 26.9729 27.4331 27.0416V26.6358C27.4331 25.9551 27.2197 25.4353 26.7929 25.0647C26.3677 24.7009 25.7607 24.5198 24.9671 24.5198C23.8432 24.5198 22.5227 24.9692 20.9987 25.8746C19.4697 26.78 17.814 28.108 16.0299 29.8535C15.0177 30.8126 14.124 31.8086 13.3354 32.8314C12.5517 33.8592 11.838 34.9743 11.2044 36.1732ZM27.3414 27.4977C27.1397 27.434 26.9479 27.3904 26.7612 27.3585C26.5761 27.325 26.3843 27.3099 26.1859 27.3099C25.4039 27.3099 24.6052 27.4759 23.7899 27.8129C22.9745 28.1449 22.1325 28.653 21.2705 29.3337C20.4768 29.939 19.8748 30.5661 19.4597 31.2083C19.0445 31.8522 18.8361 32.4826 18.8361 33.0997C18.8361 33.4736 18.9595 33.7955 19.2096 34.0571C19.4597 34.3204 19.7748 34.4495 20.1466 34.4495C21.3938 34.4495 22.7944 33.7318 24.3485 32.2915C25.9041 30.8545 26.9012 29.2532 27.3414 27.4977ZM28.8554 47.067C29.2272 47.067 29.7341 46.8473 30.3727 46.4147C31.013 45.9804 31.6783 45.3869 32.3653 44.6357C33.4991 43.3982 34.3678 42.3704 34.9747 41.5505C35.5883 40.7322 35.8918 40.1688 35.8918 39.8804C35.8918 39.649 35.8168 39.473 35.6717 39.3556C35.5233 39.2315 35.3049 39.1729 35.0181 39.1729C34.4962 39.1729 33.8876 39.3824 33.1956 39.7932C32.5087 40.2074 31.78 40.801 31.023 41.5723C30.0859 42.5364 29.3606 43.4251 28.8554 44.25C28.3435 45.07 28.0884 45.744 28.0884 46.2638C28.0884 46.527 28.1518 46.7249 28.2852 46.8641C28.4136 46.9982 28.6053 47.067 28.8554 47.067ZM46.1429 39.2366C45.7177 39.2366 45.2058 39.4361 44.6156 39.8368C44.0187 40.2443 43.325 40.8596 42.5213 41.7014C41.5743 42.6705 40.8489 43.5324 40.3437 44.2886C39.8418 45.0431 39.5867 45.6384 39.5867 46.076C39.5867 46.3812 39.6734 46.6126 39.8368 46.7685C40.0086 46.9228 40.247 47.0032 40.5722 47.0032C41.0307 47.0032 41.6159 46.7568 42.3363 46.2739C43.0532 45.7876 43.7785 45.1286 44.5039 44.3037C45.2542 43.4787 45.8444 42.6806 46.2813 41.921C46.7182 41.1548 46.9366 40.5595 46.9366 40.1319C46.9366 39.8368 46.8682 39.6122 46.7298 39.4629C46.5848 39.312 46.3947 39.2366 46.1429 39.2366ZM75.4473 42.6068C75.1221 42.9338 74.802 43.1786 74.4885 43.3446C74.1684 43.5106 73.8649 43.5961 73.5731 43.5961C73.2964 43.5961 73.0663 43.5223 72.8962 43.3714C72.7261 43.2172 72.6344 43.0176 72.6344 42.7661C72.6344 42.3872 72.8378 42.0703 73.238 41.8087C73.6365 41.5454 74.1417 41.4163 74.7436 41.4163C74.8887 41.4163 75.0321 41.4214 75.1755 41.4381C75.3139 41.4549 75.4573 41.4817 75.6024 41.5086C76.8429 40.3985 77.7966 39.6289 78.4719 39.1896C79.1489 38.7503 79.6975 38.5307 80.1126 38.5307C80.4528 38.5307 80.7312 38.6162 80.933 38.7872C81.1347 38.9633 81.2365 39.1946 81.2365 39.4881C81.2365 39.7563 81.1781 39.966 81.0614 40.1051C80.948 40.2493 80.7846 40.3181 80.5662 40.3181C80.3994 40.3181 80.2677 40.2661 80.166 40.1638C80.0643 40.0565 80.0176 39.9223 80.0176 39.7513V39.5199C80.0176 39.4244 79.9959 39.3506 79.9526 39.2902C79.9159 39.2315 79.8625 39.2047 79.7992 39.2047C79.489 39.2047 78.9988 39.4361 78.3335 39.9022C77.6683 40.3667 76.9279 41.0055 76.1176 41.8087C76.336 42.082 76.4911 42.3268 76.5861 42.5465C76.6778 42.7661 76.7262 42.9925 76.7262 43.2222C76.7262 43.6833 76.4594 44.2819 75.9325 45.0264C75.3989 45.7658 75.1338 46.2588 75.1338 46.5002C75.1338 46.6327 75.1755 46.7467 75.2505 46.8372C75.3306 46.9278 75.4323 46.9714 75.554 46.9714C75.9208 46.9714 76.4761 46.7199 77.2147 46.2168C77.96 45.7172 78.8021 45.0163 79.7341 44.1159C80.2344 43.6397 80.7246 43.1451 81.2064 42.6253C81.655 41.9931 82.2036 41.3962 82.8555 40.8328C83.6759 40.142 84.5496 39.6071 85.4766 39.2265C86.402 38.8459 87.2974 38.6531 88.1611 38.6531C88.5863 38.6531 88.9281 38.7503 89.1782 38.9364C89.4233 39.1259 89.5617 39.3824 89.5817 39.7027C89.9236 39.2366 90.1837 38.9532 90.3554 38.8576C90.5255 38.7654 90.7973 38.7168 91.1758 38.7168C91.3725 38.7168 91.5259 38.7436 91.6393 38.7989C91.756 38.8459 91.8144 38.9163 91.8144 39.0018C91.8144 39.0605 91.776 39.1678 91.7127 39.312C91.6443 39.4629 91.5576 39.5904 91.4526 39.7094L87.5209 44.8503C87.2824 45.1773 87.0957 45.4757 86.9623 45.744C86.8239 46.0173 86.7539 46.2487 86.7539 46.4365C86.7539 46.5908 86.7972 46.7031 86.8822 46.7735C86.9673 46.8423 87.1057 46.8741 87.3024 46.8741C87.7076 46.8741 88.2928 46.6008 89.0498 46.0609C89.8118 45.5143 90.7439 44.7044 91.8461 43.6279C92.3046 43.1786 92.7681 42.6806 93.2417 42.1407C93.7152 41.5941 93.992 41.3208 94.0787 41.3208C94.1371 41.3208 94.1837 41.3375 94.2154 41.3694C94.2471 41.4012 94.2638 41.4482 94.2638 41.5086C94.2638 41.6796 93.992 42.0652 93.4601 42.6806C92.9215 43.2909 92.2246 43.9935 91.3609 44.7916C90.2904 45.7809 89.39 46.4952 88.6663 46.9278C87.9477 47.3621 87.3091 47.5817 86.7539 47.5817C86.3704 47.5817 86.0719 47.4912 85.8601 47.3084C85.6467 47.1256 85.54 46.8641 85.54 46.5321C85.54 46.2269 85.5817 45.9368 85.6734 45.6702C85.7584 45.3969 85.8868 45.1337 86.0569 44.8822C85.1832 45.7926 84.3945 46.4684 83.6975 46.9127C83.0006 47.357 82.3703 47.5817 81.8117 47.5817C81.2581 47.5817 80.8263 47.404 80.5178 47.0569C80.2027 46.7031 80.0493 46.2269 80.0493 45.6216C80.0493 45.2058 80.1343 44.7648 80.3061 44.2953C80.0159 44.5703 79.7075 44.8553 79.3773 45.1504C78.4036 46.0274 77.5832 46.6612 76.9229 47.0401C76.2626 47.4207 75.6757 47.6136 75.1655 47.6136C74.717 47.6136 74.3718 47.4962 74.1267 47.2547C73.8816 47.015 73.7599 46.6712 73.7599 46.2319C73.7599 45.6803 74.0417 45.0264 74.6053 44.2769C75.1655 43.5324 75.4473 42.9975 75.4473 42.6705V42.6068ZM75.2289 42.1239C75.1005 42.082 74.9738 42.0485 74.8454 42.0283C74.717 42.0065 74.5786 41.9948 74.4302 41.9948C74.0567 41.9948 73.7482 42.0652 73.5148 42.2094C73.2747 42.3486 73.1513 42.5247 73.1513 42.7343C73.1513 42.8466 73.1996 42.9438 73.2964 43.0176C73.3864 43.088 73.5148 43.1249 73.6682 43.1249C73.8766 43.1249 74.115 43.0394 74.3918 42.8583C74.6703 42.6806 74.9471 42.4341 75.2289 42.1239ZM82.0935 47.067C82.467 47.067 82.9739 46.8473 83.6125 46.4147C84.2511 45.9804 84.9181 45.3869 85.6034 44.6357C86.7388 43.3982 87.6076 42.3704 88.2145 41.5505C88.8264 40.7322 89.1299 40.1688 89.1299 39.8804C89.1299 39.649 89.0548 39.473 88.9114 39.3556C88.7631 39.2315 88.543 39.1729 88.2562 39.1729C87.7343 39.1729 87.1274 39.3824 86.4354 39.7932C85.7484 40.2074 85.0181 40.801 84.2611 41.5723C83.324 42.5364 82.6004 43.4251 82.0935 44.25C81.5833 45.07 81.3265 45.744 81.3265 46.2638C81.3265 46.527 81.3915 46.7249 81.5233 46.8641C81.6516 46.9982 81.8434 47.067 82.0935 47.067ZM109.48 46.9395C108.502 47.191 107.58 47.3771 106.716 47.4962C105.854 47.6186 105.05 47.6773 104.298 47.6773C102.924 47.6773 101.81 47.5063 100.965 47.1575C100.118 46.8154 99.6911 46.3711 99.6911 45.8245C99.6911 45.3869 99.9679 45.0264 100.521 44.753C101.07 44.4747 101.8 44.3355 102.706 44.3355C103.558 44.3355 104.49 44.4529 105.502 44.6893C106.509 44.9257 108.005 45.407 109.992 46.1414C111.553 45.5948 113.034 44.6675 114.434 43.3563C115.835 42.0434 117.284 40.2074 118.779 37.8549C119.051 37.4374 119.44 36.8003 119.947 35.9535C122.216 32.2311 124.297 29.6137 126.188 28.108C125.421 26.9293 124.362 26.0305 123.015 25.4085C121.667 24.7931 120.095 24.4812 118.296 24.4812C116.527 24.4812 114.806 24.84 113.14 25.5594C111.468 26.2753 109.864 27.3417 108.325 28.7502C106.764 30.2073 105.555 31.718 104.698 33.2808C103.841 34.8452 103.409 36.3291 103.409 37.7275C103.409 39.0555 103.755 40.0833 104.448 40.811C105.14 41.5404 106.126 41.9043 107.404 41.9043C108.507 41.9043 109.704 41.584 110.998 40.9452C112.293 40.308 113.577 39.4042 114.844 38.2305C115.957 37.2077 116.82 36.1413 117.422 35.038C118.024 33.9347 118.328 32.8901 118.328 31.9042C118.328 31.3106 118.167 30.8327 117.847 30.4806C117.534 30.1218 117.107 29.944 116.58 29.944C115.6 29.944 114.476 30.3834 113.209 31.262C111.941 32.1406 110.706 33.3512 109.512 34.8871C108.815 35.7875 108.272 36.6242 107.878 37.3888C107.488 38.1601 107.249 38.8777 107.153 39.5484C107.133 39.3925 107.116 39.2366 107.106 39.0873C107.094 38.9314 107.089 38.7872 107.089 38.6531C107.089 37.7426 107.339 36.7684 107.84 35.7288C108.34 34.6842 109.06 33.6564 109.992 32.6436C110.908 31.6577 111.92 30.8814 113.022 30.3146C114.126 29.7412 115.17 29.4578 116.16 29.4578C117.032 29.4578 117.704 29.6925 118.167 30.1587C118.636 30.6198 118.869 31.2888 118.869 32.1574C118.869 33.0343 118.609 33.9884 118.076 35.0229C117.544 36.0507 116.804 37.0568 115.845 38.0427C114.514 39.4143 113.097 40.4908 111.6 41.2721C110.104 42.0602 108.735 42.4509 107.5 42.4509C105.976 42.4509 104.752 41.9629 103.815 40.9837C102.876 40.0028 102.407 38.7168 102.407 37.1155C102.407 35.3918 102.817 33.7637 103.633 32.2362C104.453 30.7103 105.657 29.3136 107.249 28.0493C108.82 26.7901 110.583 25.8058 112.538 25.0815C114.493 24.3588 116.373 24 118.167 24C120.02 24 121.667 24.3203 123.1 24.9641C124.537 25.6063 125.709 26.5554 126.609 27.7961C127.733 26.9511 128.845 26.3139 129.948 25.8897C131.05 25.4671 132.149 25.2542 133.229 25.2542C134.508 25.2542 135.503 25.5376 136.217 26.1043C136.926 26.6677 137.282 27.4591 137.282 28.4719C137.282 29.6238 136.787 30.6298 135.797 31.4984C134.8 32.3703 133.804 32.8046 132.809 32.8046C132.68 32.8046 132.59 32.7945 132.542 32.7727C132.489 32.7509 132.462 32.7191 132.462 32.6755C132.462 32.5531 132.664 32.4357 133.064 32.3233C133.462 32.216 133.804 32.0987 134.086 31.9696C134.95 31.5621 135.615 31.0473 136.09 30.427C136.564 29.8049 136.802 29.1409 136.802 28.44C136.802 27.5614 136.472 26.8874 135.818 26.4145C135.163 25.9433 134.231 25.7086 133.027 25.7086C132.068 25.7086 131.045 25.9333 129.959 26.3776C128.872 26.822 127.872 27.434 126.955 28.2036C127.371 28.8743 127.685 29.602 127.893 30.3951C128.1 31.1815 128.202 32.04 128.202 32.9605C128.202 34.6741 127.828 36.4263 127.078 38.2137C126.333 40.0028 125.277 41.6427 123.93 43.1249C122.598 44.582 121.124 45.6753 119.51 46.3979C117.901 47.1256 116.133 47.4912 114.204 47.4912C113.405 47.4912 112.612 47.4476 111.818 47.357C111.029 47.2665 110.247 47.1307 109.48 46.9395ZM110.978 46.4683C111.468 46.6394 111.973 46.7618 112.507 46.8473C113.039 46.9278 113.624 46.9714 114.269 46.9714C116.037 46.9714 117.614 46.6813 118.998 46.1028C120.383 45.5193 121.726 44.582 123.025 43.2859C124.479 41.8187 125.629 40.1588 126.469 38.3009C127.311 36.4465 127.733 34.6423 127.733 32.8968C127.733 32.0819 127.632 31.3156 127.43 30.598C127.226 29.8803 126.923 29.1895 126.518 28.5306C125.176 30.0094 123.845 31.9964 122.524 34.5031C121.204 37.0098 120.362 38.5357 119.993 39.0773C118.801 40.8177 117.459 42.2949 115.968 43.5106C114.483 44.7329 112.82 45.7172 110.978 46.4683ZM108.293 46.6612C106.162 46.0274 104.688 45.6317 103.878 45.4657C103.069 45.2997 102.402 45.2141 101.88 45.2141C101.369 45.2141 100.997 45.2678 100.757 45.3801C100.516 45.4875 100.4 45.6702 100.4 45.9217C100.4 46.2856 100.783 46.5908 101.55 46.8372C102.322 47.0837 103.324 47.2061 104.565 47.2061C105.22 47.2061 105.859 47.1575 106.482 47.0669C107.106 46.9714 107.713 46.8372 108.293 46.6612ZM128.015 43.6615C129.527 43.1786 130.758 42.5632 131.707 41.8137C132.659 41.0692 133.132 40.3617 133.132 39.7027C133.132 39.5686 133.081 39.4512 132.962 39.3506C132.851 39.2533 132.712 39.2047 132.559 39.2047C132.142 39.2047 131.503 39.6172 130.641 40.4472C129.778 41.2839 128.899 42.3486 128.015 43.6615ZM140.094 42.6068C139.768 42.9338 139.45 43.1786 139.135 43.3446C138.815 43.5106 138.511 43.5961 138.219 43.5961C137.943 43.5961 137.713 43.5223 137.543 43.3714C137.372 43.2171 137.282 43.0176 137.282 42.7661C137.282 42.3872 137.484 42.0703 137.884 41.8087C138.283 41.5454 138.788 41.4163 139.39 41.4163C139.535 41.4163 139.678 41.4214 139.822 41.4381C139.96 41.4549 140.104 41.4817 140.249 41.5085C141.489 40.3985 142.443 39.6289 143.118 39.1896C143.795 38.7503 144.344 38.5307 144.759 38.5307C145.101 38.5307 145.378 38.6162 145.579 38.7872C145.781 38.9632 145.883 39.1946 145.883 39.4881C145.883 39.7563 145.824 39.9659 145.708 40.1051C145.596 40.2493 145.431 40.3181 145.213 40.3181C145.047 40.3181 144.914 40.2661 144.812 40.1638C144.711 40.0565 144.664 39.9223 144.664 39.7513V39.5199C144.664 39.4244 144.642 39.3506 144.601 39.2902C144.562 39.2315 144.509 39.2047 144.446 39.2047C144.135 39.2047 143.645 39.4361 142.982 39.9022C142.315 40.3667 141.574 41.0055 140.766 41.8087C140.982 42.082 141.137 42.3268 141.232 42.5465C141.324 42.7661 141.373 42.9925 141.373 43.2222C141.373 43.6833 141.106 44.2819 140.579 45.0264C140.045 45.7658 139.78 46.2588 139.78 46.5002C139.78 46.6327 139.822 46.7467 139.897 46.8372C139.977 46.9278 140.079 46.9714 140.2 46.9714C140.569 46.9714 141.122 46.7199 141.863 46.2168C142.608 45.7172 143.448 45.0163 144.382 44.1159C144.936 43.5877 145.478 43.0361 146.011 42.4542C146.45 41.8523 146.992 41.2688 147.642 40.7104C148.392 40.0515 149.169 39.5367 149.973 39.1728C150.783 38.804 151.512 38.6212 152.169 38.6212C152.647 38.6212 153.031 38.7604 153.313 39.0387C153.601 39.312 153.745 39.6876 153.745 40.1588C153.745 40.8177 153.446 41.6209 152.854 42.5582C152.722 42.7661 152.652 42.8902 152.652 42.922C152.652 43.0444 152.727 43.1518 152.876 43.244C153.031 43.3295 153.206 43.3764 153.414 43.3764C154.043 43.3764 154.698 43.0444 155.385 42.3821C155.57 42.1994 155.735 42.0434 155.877 41.911L161.735 34.2784C161.786 34.203 161.856 34.1175 161.936 34.0102C162.49 33.2657 163.145 32.8968 163.902 32.8968C164.029 32.8968 164.136 32.9219 164.221 32.9756C164.311 33.0242 164.354 33.0879 164.354 33.1634C164.354 33.2657 164.252 33.4736 164.046 33.7905C163.837 34.1057 163.454 34.6088 162.905 35.3113L157.568 42.0921C159.14 40.754 160.296 39.8469 161.031 39.3875C161.771 38.9213 162.372 38.6849 162.842 38.6849C163.187 38.6849 163.459 38.7872 163.662 38.9901C163.864 39.1946 163.966 39.473 163.966 39.815C163.966 40.4421 163.374 41.5454 162.187 43.1249L162.138 43.1903L161.798 43.6447C160.706 45.0968 160.157 45.9754 160.157 46.2638C160.157 46.4834 160.204 46.6444 160.291 46.735C160.381 46.8322 160.519 46.8741 160.706 46.8741C161.089 46.8741 161.665 46.6058 162.437 46.0609C163.209 45.5193 164.109 44.738 165.153 43.7252C165.51 43.3748 165.868 42.9975 166.235 42.5968C166.679 41.9747 167.22 41.3878 167.864 40.8328C168.684 40.142 169.558 39.6071 170.483 39.2265C171.411 38.8459 172.306 38.6531 173.168 38.6531C173.595 38.6531 173.935 38.7503 174.185 38.9364C174.43 39.1259 174.569 39.3824 174.59 39.7027C174.932 39.2366 175.192 38.9532 175.362 38.8576C175.532 38.7654 175.804 38.7168 176.183 38.7168C176.379 38.7168 176.534 38.7436 176.646 38.7989C176.763 38.8459 176.823 38.9163 176.823 39.0018C176.823 39.0605 176.785 39.1678 176.721 39.312C176.651 39.4629 176.566 39.5903 176.459 39.7094L172.529 44.8503C172.289 45.1773 172.103 45.4757 171.971 45.744C171.831 46.0173 171.762 46.2487 171.762 46.4365C171.762 46.5908 171.804 46.7031 171.891 46.7735C171.976 46.8423 172.114 46.8741 172.311 46.8741C172.716 46.8741 173.301 46.6008 174.058 46.0609C174.819 45.5143 175.751 44.7044 176.855 43.6279C177.311 43.1786 177.775 42.6806 178.249 42.1407C178.724 41.5941 179.001 41.3208 179.086 41.3208C179.144 41.3208 179.192 41.3375 179.224 41.3694C179.256 41.4012 179.272 41.4482 179.272 41.5085C179.272 41.6796 179.001 42.0652 178.467 42.6806C177.93 43.2909 177.231 43.9935 176.369 44.7916C175.299 45.7809 174.399 46.4952 173.673 46.9278C172.955 47.3621 172.316 47.5817 171.762 47.5817C171.379 47.5817 171.08 47.4912 170.867 47.3084C170.654 47.1256 170.549 46.8641 170.549 46.5321C170.549 46.2269 170.59 45.9368 170.68 45.6702C170.767 45.3969 170.894 45.1337 171.065 44.8822C170.19 45.7926 169.403 46.4684 168.706 46.9127C168.007 47.357 167.379 47.5817 166.82 47.5817C166.267 47.5817 165.835 47.404 165.525 47.0569C165.211 46.7031 165.056 46.2269 165.056 45.6216C165.056 45.1923 165.148 44.7346 165.331 44.2483C165.15 44.4227 164.959 44.6038 164.759 44.7916C163.774 45.7339 162.9 46.4298 162.148 46.8909C161.393 47.352 160.753 47.5817 160.221 47.5817C159.796 47.5817 159.454 47.4576 159.199 47.2061C158.944 46.9546 158.815 46.6226 158.815 46.2001C158.815 45.8144 158.964 45.3483 159.262 44.8067C159.555 44.2618 160.136 43.4318 160.998 42.3117C161.478 41.6947 161.861 41.1648 162.138 40.7205C162.42 40.2761 162.56 39.981 162.56 39.8469C162.56 39.7413 162.528 39.6557 162.453 39.5904C162.378 39.5199 162.288 39.4881 162.17 39.4881C161.653 39.4881 160.578 40.1739 158.949 41.5572C157.324 42.9388 155.8 44.5669 154.383 46.4365L149.533 52.7444C149.468 52.8299 149.393 52.9322 149.298 53.0613C148.759 53.784 148.11 54.1428 147.348 54.1428C147.225 54.1428 147.115 54.116 147.028 54.0623C146.938 54.0137 146.895 53.955 146.895 53.8913C146.895 53.6817 147.225 53.1619 147.88 52.3369C148.077 52.0754 148.232 51.8725 148.344 51.7266L154.642 43.5206C154.181 43.7688 153.743 43.8912 153.324 43.8912C153.094 43.8912 152.893 43.8593 152.717 43.7906C152.536 43.7252 152.371 43.6229 152.216 43.4854C151.125 44.8453 150.106 45.8681 149.164 46.5539C148.222 47.2397 147.365 47.5817 146.581 47.5817C146.043 47.5817 145.611 47.3989 145.298 47.0401C144.977 46.6813 144.817 46.1833 144.817 45.5562C144.817 45.1135 144.904 44.6541 145.074 44.1779C144.751 44.4898 144.401 44.8134 144.025 45.1504C143.05 46.0274 142.23 46.6612 141.569 47.0401C140.909 47.4207 140.324 47.6136 139.812 47.6136C139.363 47.6136 139.018 47.4962 138.773 47.2547C138.528 47.015 138.406 46.6712 138.406 46.2319C138.406 45.6803 138.688 45.0264 139.252 44.2769C139.812 43.5324 140.094 42.9975 140.094 42.6705V42.6068ZM139.875 42.1239C139.749 42.082 139.62 42.0485 139.492 42.0283C139.363 42.0065 139.227 41.9948 139.077 41.9948C138.703 41.9948 138.395 42.0652 138.161 42.2094C137.921 42.3486 137.798 42.5247 137.798 42.7342C137.798 42.8466 137.846 42.9438 137.943 43.0176C138.033 43.088 138.161 43.1249 138.315 43.1249C138.523 43.1249 138.761 43.0394 139.038 42.8583C139.317 42.6806 139.593 42.4341 139.875 42.1239ZM152.434 39.2366C152.009 39.2366 151.497 39.4361 150.907 39.8368C150.31 40.2443 149.616 40.8596 148.812 41.7014C147.865 42.6705 147.14 43.5324 146.635 44.2886C146.133 45.0431 145.878 45.6384 145.878 46.076C145.878 46.3812 145.963 46.6126 146.128 46.7685C146.3 46.9228 146.538 47.0032 146.863 47.0032C147.322 47.0032 147.907 46.7568 148.626 46.2739C149.344 45.7876 150.07 45.1286 150.793 44.3037C151.545 43.4787 152.136 42.6806 152.572 41.921C153.009 41.1548 153.228 40.5595 153.228 40.1319C153.228 39.8368 153.158 39.6122 153.021 39.4629C152.876 39.312 152.684 39.2366 152.434 39.2366ZM167.102 47.0669C167.474 47.0669 167.981 46.8473 168.619 46.4147C169.26 45.9804 169.925 45.3869 170.612 44.6357C171.746 43.3982 172.614 42.3704 173.221 41.5505C173.835 40.7322 174.138 40.1688 174.138 39.8804C174.138 39.649 174.063 39.473 173.918 39.3556C173.77 39.2315 173.551 39.1728 173.265 39.1728C172.743 39.1728 172.136 39.3824 171.442 39.7932C170.755 40.2074 170.027 40.801 169.27 41.5723C168.333 42.5364 167.609 43.4251 167.102 44.25C166.59 45.0699 166.335 45.744 166.335 46.2638C166.335 46.527 166.398 46.7249 166.532 46.8641C166.66 46.9982 166.852 47.0669 167.102 47.0669Z" stroke="#DDAD67" stroke-width="0.9"/>
<path fill-rule="evenodd" clip-rule="evenodd" d="M57.3371 57H54.6213V56.7655C55.0513 56.7655 55.2665 56.6626 55.2665 56.4568C55.2665 56.3508 55.1891 56.1977 55.0337 55.998L53.4382 53.9204L52.9274 54.3883V56.1291C52.9274 56.3851 53.0136 56.5628 53.1872 56.6626C53.3068 56.7312 53.4981 56.7655 53.7609 56.7655V57H51V56.7655C51.329 56.7655 51.5496 56.7379 51.6634 56.6815C51.8364 56.594 51.9232 56.3974 51.9232 56.0917V52.0015C51.9232 51.6835 51.8546 51.4854 51.7173 51.4075C51.5795 51.3292 51.3408 51.2903 51 51.2903V51.0563H53.7609V51.2903C53.4559 51.2903 53.25 51.3246 53.1421 51.3932C52.9989 51.4869 52.9274 51.6804 52.9274 51.9738V54.0704L54.5674 52.5355C54.9317 52.1919 55.1141 51.9175 55.1141 51.7117C55.1141 51.4306 54.8988 51.2903 54.4688 51.2903V51.0563H56.8889V51.2903C56.3869 51.3778 55.8132 51.7178 55.168 52.3107L54.1908 53.2092L56.3241 55.998C56.5094 56.2417 56.6526 56.4102 56.7546 56.5039C56.9458 56.6785 57.14 56.7655 57.3371 56.7655V57ZM56.0554 51.2903H55.0694C55.195 51.4152 55.2577 51.5335 55.2577 51.6461C55.2577 51.7024 55.2366 51.7895 55.195 51.9083C55.4877 51.64 55.7745 51.4337 56.0554 51.2903ZM55.6701 56.4286C55.6701 56.273 55.5651 56.0574 55.3563 55.783L53.7251 53.649L53.5456 53.8175L55.0694 55.8393C55.2965 56.1388 55.4097 56.3508 55.4097 56.4757C55.4097 56.6006 55.3411 56.6969 55.2038 56.7655H55.3112C55.5504 56.7655 55.6701 56.6534 55.6701 56.4286ZM52.3086 56.1291V51.9175C52.3086 51.6804 52.2699 51.5166 52.1924 51.426C52.1144 51.3354 51.9649 51.2903 51.7443 51.2903C51.8816 51.3589 51.9713 51.4526 52.0129 51.5714C52.037 51.6461 52.0487 51.7833 52.0487 51.983V56.1107C52.0487 56.2975 52.034 56.4286 52.0041 56.5039C51.9561 56.6099 51.8605 56.6969 51.7173 56.7655H51.8159C52.0129 56.7655 52.1502 56.7066 52.2282 56.5878C52.2816 56.4942 52.3086 56.3416 52.3086 56.1291ZM62.948 55.4743L62.4906 57H57.5342V56.7655C57.8568 56.7655 58.072 56.7348 58.1794 56.6723C58.3407 56.5848 58.4216 56.3912 58.4216 56.0917V52.0296C58.4216 51.7055 58.35 51.493 58.2064 51.3932C58.099 51.3246 57.8749 51.2903 57.5342 51.2903V51.0563H62.2935L62.7867 52.4044H62.4906C62.2336 52.0608 61.9066 51.7895 61.5095 51.5898C61.1118 51.3901 60.7039 51.2903 60.2857 51.2903C59.993 51.2903 59.79 51.3185 59.6763 51.3748C59.5091 51.468 59.4252 51.6492 59.4252 51.9175V53.8267H60.2857C60.979 53.8267 61.3256 53.4867 61.3256 52.8068H61.5943V55.0437H61.3256C61.3256 54.3883 60.9849 54.0607 60.3038 54.0607H59.4252V56.1291C59.4252 56.2663 59.4404 56.3728 59.4703 56.4476C59.5419 56.6595 59.8944 56.7655 60.5279 56.7655C60.9579 56.7655 61.3526 56.638 61.711 56.382C61.9498 56.2136 62.2488 55.911 62.6072 55.4743H62.948ZM62.213 51.8985V51.8612L61.9169 51.2903H61.2359C61.2241 51.2903 61.203 51.2964 61.1731 51.3092C61.1913 51.3031 61.2119 51.2995 61.2359 51.2995C61.3795 51.2995 61.7051 51.4992 62.213 51.8985ZM61.254 54.3418V53.5087C61.1462 53.6956 60.9579 53.8364 60.6892 53.9296C60.9702 54.0049 61.1584 54.1421 61.254 54.3418ZM62.3744 56.0825V56.0359C62.3744 56.1603 62.2366 56.3011 61.962 56.4568C61.7649 56.5566 61.5708 56.6534 61.3795 56.7471L61.4153 56.7655H62.0875L62.3744 56.0825ZM58.807 56.1291V51.9267C58.807 51.6958 58.7726 51.532 58.704 51.4352C58.6354 51.3389 58.4902 51.2903 58.2691 51.2903C58.4544 51.384 58.5471 51.621 58.5471 52.0015V56.1107C58.5471 56.4286 58.4544 56.6472 58.2691 56.7655C58.4961 56.7655 58.6457 56.7128 58.7172 56.6068C58.7771 56.5192 58.807 56.36 58.807 56.1291ZM68.4153 52.6757C68.4153 53.4555 68.027 53.9516 67.2503 54.1636C66.9155 54.2573 66.2315 54.3044 65.1975 54.3044V56.0917C65.1975 56.3728 65.3083 56.5628 65.5294 56.6626C65.6785 56.7312 65.9089 56.7655 66.2193 56.7655V57H63.2794V56.7655C63.6202 56.7655 63.8531 56.7189 63.9786 56.6252C64.1281 56.5131 64.2027 56.2883 64.2027 55.9514V52.1233C64.2027 51.7613 64.1384 51.5304 64.01 51.4306C63.8815 51.3307 63.6378 51.2811 63.2794 51.2811V51.0563H66.0579C67.6293 51.0563 68.4153 51.596 68.4153 52.6757ZM67.7073 52.685C67.7073 51.961 67.3817 51.5023 66.7301 51.3092L66.7032 51.3185C67.2052 51.5806 67.4563 52.0424 67.4563 52.7039C67.4563 53.3715 67.2052 53.8113 66.7032 54.0233L66.7301 54.0325C67.3817 53.9327 67.7073 53.4837 67.7073 52.685ZM67.3131 52.685C67.3131 51.749 66.8527 51.2811 65.9324 51.2811C65.628 51.2811 65.4245 51.3497 65.323 51.4869C65.2396 51.599 65.1975 51.8207 65.1975 52.1515V54.0704H65.7711C66.2791 54.0704 66.6556 53.9736 66.9008 53.7801C67.1753 53.5615 67.3131 53.1964 67.3131 52.685ZM64.588 56.1291V51.9738C64.588 51.724 64.5478 51.5463 64.4669 51.4403C64.3865 51.3338 64.2296 51.2811 63.9967 51.2811C64.1522 51.3681 64.2507 51.4587 64.2924 51.5524C64.3164 51.6149 64.3282 51.7521 64.3282 51.9641V56.1291C64.3282 56.4665 64.2296 56.6785 64.0325 56.7655H64.1399C64.4385 56.7655 64.588 56.5535 64.588 56.1291ZM74.4758 57H72.0739V56.7655C72.4921 56.7655 72.701 56.6472 72.701 56.4102C72.701 56.3165 72.6622 56.167 72.5848 55.9607L72.1366 54.7626H70.2186C70.1406 54.9689 70.0632 55.1748 69.9852 55.3806C69.896 55.6427 69.8509 55.8608 69.8509 56.0359C69.8509 56.2479 69.9107 56.4225 70.0303 56.5597C70.1499 56.6969 70.3078 56.7655 70.5054 56.7655V57H68.632V56.7655C69.0203 56.7655 69.3552 56.3912 69.6356 55.6427L71.0339 51.9083C70.8908 51.6584 70.6608 51.5335 70.3441 51.5335V51.3558L71.0609 51.1219C71.1325 51.0906 71.2521 51.0502 71.4193 51C71.4193 51 71.5448 51 71.7959 51L73.6605 55.9704C73.8576 56.5008 74.1292 56.7655 74.4758 56.7655V57ZM73.0956 56.4102C73.0956 56.254 73.0476 56.0513 72.952 55.8019L71.5002 51.9922C71.3688 51.6431 71.1953 51.468 70.9805 51.468C70.8967 51.468 70.828 51.4777 70.7741 51.4961C70.9834 51.5714 71.1477 51.7711 71.2673 52.0951L72.701 55.9049C72.7848 56.1291 72.8265 56.3042 72.8265 56.4286C72.8265 56.5413 72.7549 56.6534 72.6117 56.7655H72.701C72.9642 56.7655 73.0956 56.6472 73.0956 56.4102ZM72.0288 54.4913L71.1683 52.217L70.3171 54.4913H72.0288ZM69.842 56.7655C69.6807 56.6411 69.5998 56.4849 69.5998 56.2975C69.5998 56.2044 69.6121 56.1076 69.6356 56.0078L69.5998 55.998C69.618 56.0047 69.6268 56.0108 69.6268 56.017C69.6268 56.0672 69.5479 56.1946 69.3895 56.401C69.2311 56.6068 69.1247 56.7281 69.0713 56.7655H69.842ZM81.8165 57H79.2086V56.7655C79.7401 56.7655 80.0063 56.5254 80.0063 56.0451V51.8146L78.0074 57H77.7652L75.7932 51.9738V55.4927C75.7932 56.3416 76.0953 56.7655 76.6988 56.7655V57H74.6729V56.7655C75.2706 56.7655 75.5692 56.3477 75.5692 55.5116V51.6461C75.3603 51.4091 75.0617 51.2903 74.6729 51.2903V51.0563H76.5105L78.3119 55.5582L80.0779 51.0563H81.8165V51.2903C81.5655 51.2903 81.3806 51.3246 81.261 51.3932C81.0997 51.493 81.0188 51.6676 81.0188 51.9175V56.1388C81.0188 56.5566 81.285 56.7655 81.8165 56.7655V57ZM80.5349 51.2903C80.3618 51.2903 80.2481 51.3558 80.1941 51.4869C80.1583 51.5683 80.1407 51.7117 80.1407 51.9175V56.1199C80.1407 56.3011 80.1255 56.4286 80.0956 56.5039C80.0598 56.6037 79.9764 56.6908 79.8445 56.7655H79.9882C80.1613 56.7655 80.278 56.7036 80.3378 56.5786C80.3795 56.4911 80.4005 56.3447 80.4005 56.1388V51.9175C80.4005 51.6057 80.4452 51.3963 80.5349 51.2903ZM77.9358 56.4757C77.9358 56.3882 77.8966 56.2479 77.8191 56.0544L76.2419 52.067C76.134 51.7987 76.0413 51.618 75.9639 51.5243C75.8384 51.3681 75.6648 51.2903 75.4442 51.2903H75.3005C75.5633 51.3901 75.7874 51.6712 75.9727 52.1325L77.8461 56.7655C77.9059 56.6472 77.9358 56.5505 77.9358 56.4757ZM75.9727 56.7655C75.7874 56.6595 75.6648 56.4757 75.6055 56.2136C75.5393 56.4322 75.3814 56.616 75.1304 56.7655H75.9727ZM88.8513 57H86.1532V56.7655C86.464 56.7655 86.6699 56.7348 86.7719 56.6723C86.9269 56.5848 87.0048 56.3943 87.0048 56.1015V52.6384H86.9779L84.3249 55.6335C84.1935 55.783 84.1278 55.9484 84.1278 56.1291C84.1278 56.3912 84.2111 56.5694 84.3788 56.6626C84.4921 56.7312 84.6892 56.7655 84.9701 56.7655V57H82.2725V56.7655C82.577 56.7655 82.7834 56.7348 82.8908 56.6723C83.0462 56.5786 83.1236 56.3882 83.1236 56.1015V51.9549C83.1236 51.6676 83.0462 51.4777 82.8908 51.384C82.7834 51.3215 82.577 51.2903 82.2725 51.2903V51.0563H84.9701V51.2903C84.4087 51.2903 84.1278 51.4992 84.1278 51.9175V55.4369H84.1547L86.8077 52.4228C86.9391 52.2733 87.0048 52.1141 87.0048 51.9456C87.0048 51.6774 86.918 51.493 86.745 51.3932C86.6253 51.3246 86.4282 51.2903 86.1532 51.2903V51.0563H88.8513V51.2903C88.5703 51.2903 88.3703 51.3215 88.2507 51.384C88.0835 51.4777 87.9996 51.6553 87.9996 51.9175V56.1291C87.9996 56.404 88.0805 56.5848 88.2418 56.6723C88.3551 56.7348 88.5586 56.7655 88.8513 56.7655V57ZM87.3902 56.1291V51.9175C87.3902 51.6989 87.3691 51.5494 87.3274 51.468C87.2676 51.3497 87.1421 51.2903 86.9509 51.2903H86.8435C87.0347 51.2903 87.1303 51.5058 87.1303 51.9364V56.1107C87.1303 56.2914 87.1186 56.4194 87.0945 56.4942C87.0524 56.6068 86.969 56.6969 86.8435 56.7655H86.969C87.25 56.7655 87.3902 56.5535 87.3902 56.1291ZM83.5183 56.1291V51.9175C83.5183 51.6866 83.4806 51.5243 83.4061 51.4306C83.3315 51.3374 83.1864 51.2903 82.9717 51.2903C83.1624 51.4214 83.258 51.64 83.258 51.9456V56.1199C83.258 56.2945 83.2433 56.4194 83.2134 56.4942C83.1776 56.594 83.0967 56.6846 82.9717 56.7655H83.0879C83.3747 56.7655 83.5183 56.5535 83.5183 56.1291ZM95.6183 57H92.9026V56.7655C93.3326 56.7655 93.5478 56.6626 93.5478 56.4568C93.5478 56.3508 93.4703 56.1977 93.3149 55.998L91.7195 53.9204L91.2086 54.3883V56.1291C91.2086 56.3851 91.2949 56.5628 91.4685 56.6626C91.5881 56.7312 91.7793 56.7655 92.0421 56.7655V57H89.2813V56.7655C89.6102 56.7655 89.8314 56.7379 89.9446 56.6815C90.1177 56.594 90.2045 56.3974 90.2045 56.0917V52.0015C90.2045 51.6835 90.1358 51.4854 89.9986 51.4075C89.8608 51.3292 89.622 51.2903 89.2813 51.2903V51.0563H92.0421V51.2903C91.7371 51.2903 91.5312 51.3246 91.4234 51.3932C91.2802 51.4869 91.2086 51.6804 91.2086 51.9738V54.0704L92.8486 52.5355C93.2134 52.1919 93.3953 51.9175 93.3953 51.7117C93.3953 51.4306 93.1806 51.2903 92.7501 51.2903V51.0563H95.1702V51.2903C94.6681 51.3778 94.0945 51.7178 93.4493 52.3107L92.4721 53.2092L94.6054 55.998C94.7907 56.2417 94.9339 56.4102 95.0358 56.5039C95.2271 56.6785 95.4212 56.7655 95.6183 56.7655V57ZM94.3367 51.2903H93.3507C93.4762 51.4152 93.539 51.5335 93.539 51.6461C93.539 51.7024 93.5179 51.7895 93.4762 51.9083C93.7689 51.64 94.0558 51.4337 94.3367 51.2903ZM93.9513 56.4286C93.9513 56.273 93.8464 56.0574 93.6375 55.783L92.0063 53.649L91.8269 53.8175L93.3507 55.8393C93.5777 56.1388 93.6915 56.3508 93.6915 56.4757C93.6915 56.6006 93.6223 56.6969 93.4851 56.7655H93.5924C93.8317 56.7655 93.9513 56.6534 93.9513 56.4286ZM90.5899 56.1291V51.9175C90.5899 51.6804 90.5511 51.5166 90.4737 51.426C90.3957 51.3354 90.2466 51.2903 90.0255 51.2903C90.1628 51.3589 90.2525 51.4526 90.2942 51.5714C90.3182 51.6461 90.33 51.7833 90.33 51.983V56.1107C90.33 56.2975 90.3153 56.4286 90.2854 56.5039C90.2373 56.6099 90.1417 56.6969 89.9986 56.7655H90.0971C90.2942 56.7655 90.4315 56.7066 90.5094 56.5878C90.5629 56.4942 90.5899 56.3416 90.5899 56.1291ZM102 55.3714C102 56.4568 101.214 57 99.6427 57H96.7298V56.7752C97.1 56.7752 97.3569 56.7312 97.5006 56.6442C97.6918 56.5254 97.7874 56.2883 97.7874 55.933V51.983C97.7874 51.8146 97.7516 51.6615 97.68 51.5243C97.5903 51.362 97.4677 51.2811 97.3123 51.2811C97.2525 51.2811 97.1657 51.2995 97.0524 51.3374C96.5563 51.5181 96.192 51.8893 95.9591 52.451H95.7169L96.0037 51.0563H99.7324V51.2811C99.4157 51.2811 99.1945 51.3154 99.069 51.384C98.8837 51.4777 98.791 51.6712 98.791 51.9641V53.668C99.5623 53.668 100.019 53.6741 100.162 53.6864C100.724 53.7427 101.151 53.8892 101.445 54.1262C101.815 54.4385 102 54.8532 102 55.3714ZM101.292 55.3616C101.292 54.5133 100.966 54.0361 100.315 53.9296L100.288 53.9485C100.79 54.2419 101.041 54.7099 101.041 55.3524C101.041 56.0201 100.79 56.4788 100.288 56.7281L100.315 56.7379C100.966 56.5628 101.292 56.1045 101.292 55.3616ZM96.7475 51.2811H96.1111L95.9498 52.0015H95.9679C96.1768 51.7024 96.4371 51.4618 96.7475 51.2811ZM100.907 55.3616C100.907 54.3822 100.389 53.8922 99.3558 53.8922H98.791V55.9049C98.791 56.2228 98.8302 56.4383 98.9077 56.5505C99.0092 56.7005 99.2127 56.7752 99.5171 56.7752C100.443 56.7752 100.907 56.3042 100.907 55.3616ZM98.1728 56.1291V51.9175C98.1728 51.493 98.0232 51.2811 97.7246 51.2811H97.6437C97.8232 51.4122 97.9129 51.6461 97.9129 51.983V56.0262C97.9129 56.382 97.8021 56.6314 97.581 56.7752C97.8085 56.7752 97.9634 56.7266 98.0472 56.6298C98.1311 56.5336 98.1728 56.3667 98.1728 56.1291Z" fill="black"/>
</svg>
