<svg width="146" height="43" viewBox="0 0 146 43" fill="none" xmlns="http://www.w3.org/2000/svg">
<path d="M0 9.3418H8.61816V9.79346H8.3374C7.5236 9.79346 6.97835 9.94401 6.70166 10.2451C6.43311 10.5381 6.29883 11.0996 6.29883 11.9297V16.8735C7.43815 16.8735 8.17871 16.8369 8.52051 16.7637C8.8623 16.6823 9.17969 16.4585 9.47266 16.0923C9.76562 15.7179 10.0464 15.0018 10.3149 13.9438C10.6323 12.7069 10.9375 11.7791 11.2305 11.1606C11.5316 10.5422 11.9425 10.0539 12.4634 9.6958C12.9924 9.32959 13.6515 9.14648 14.4409 9.14648C15.2222 9.14648 15.8488 9.37028 16.3208 9.81787C16.7928 10.2573 17.0288 10.8026 17.0288 11.4536C17.0288 11.9582 16.8701 12.3569 16.5527 12.6499C16.2354 12.9429 15.8407 13.0894 15.3687 13.0894C14.4409 13.0894 13.9404 12.5522 13.8672 11.478C13.8346 10.9409 13.6475 10.6724 13.3057 10.6724C12.9395 10.6724 12.6261 10.8799 12.3657 11.2949C12.1053 11.71 11.8245 12.4546 11.5234 13.5288C11.2305 14.5786 10.9782 15.368 10.7666 15.897C10.555 16.4178 10.2539 16.8573 9.86328 17.2153C10.3841 17.3455 10.7829 17.5164 11.0596 17.728C11.3444 17.9396 11.6007 18.2163 11.8286 18.5581C12.0565 18.8918 12.5448 19.7463 13.2935 21.1216L14.978 24.1245C15.2384 24.5721 15.5477 24.9058 15.9058 25.1255C16.272 25.3371 16.7114 25.4429 17.2241 25.4429V25.8945H11.6821L8.27637 19.5469C7.88574 18.8307 7.59684 18.3994 7.40967 18.2529C7.23063 18.0983 6.86035 18.0088 6.29883 17.9844V23.5874C6.29883 24.3849 6.46159 24.8936 6.78711 25.1133C7.12077 25.333 7.73112 25.4429 8.61816 25.4429V25.8945H0V25.4429C0.952148 25.4266 1.57471 25.2882 1.86768 25.0278C2.16878 24.7593 2.31934 24.1896 2.31934 23.3188V12.2471C2.31934 11.2786 2.20133 10.6276 1.96533 10.2939C1.72933 9.96029 1.19222 9.79346 0.354004 9.79346H0V9.3418Z" fill="#6B422B"/>
<path d="M24.4385 10.2939V17.0322H24.7681C25.8179 17.0322 26.5788 16.7026 27.0508 16.0435C27.5228 15.3843 27.8239 14.4118 27.9541 13.126H28.418V21.793H27.9541C27.8564 20.849 27.6489 20.0758 27.3315 19.4736C27.0223 18.8714 26.6602 18.4686 26.2451 18.2651C25.8301 18.0535 25.2279 17.9478 24.4385 17.9478V22.6108C24.4385 23.5223 24.4751 24.0798 24.5483 24.2832C24.6297 24.4867 24.7762 24.6535 24.9878 24.7837C25.1994 24.9139 25.5412 24.979 26.0132 24.979H27.002C28.5482 24.979 29.7852 24.6209 30.7129 23.9048C31.6488 23.1886 32.3201 22.0981 32.7271 20.6333H33.1787L32.4341 25.8945H18.1274V25.4429H18.6768C19.1569 25.4429 19.5435 25.3574 19.8364 25.1865C20.048 25.0726 20.2108 24.8773 20.3247 24.6006C20.4142 24.4053 20.459 23.8926 20.459 23.0625V12.1738C20.459 11.4251 20.4386 10.9653 20.3979 10.7944C20.3166 10.5096 20.166 10.2899 19.9463 10.1353C19.637 9.90739 19.2139 9.79346 18.6768 9.79346H18.1274V9.3418H31.9824V14.2368H31.5186C31.2826 13.0405 30.9489 12.182 30.5176 11.6611C30.0944 11.1403 29.4922 10.7578 28.7109 10.5137C28.2552 10.3672 27.4007 10.2939 26.1475 10.2939H24.4385Z" fill="#6B422B"/>
<path d="M41.0522 18.3994V22.9893C41.0522 23.8844 41.1051 24.45 41.2109 24.686C41.3249 24.9139 41.5202 25.097 41.7969 25.2354C42.0817 25.3737 42.5985 25.4429 43.3472 25.4429V25.8945H34.9365V25.4429C35.7015 25.4429 36.2183 25.3737 36.4868 25.2354C36.7635 25.0889 36.9548 24.9017 37.0605 24.6738C37.1745 24.446 37.2314 23.8844 37.2314 22.9893V12.2471C37.2314 11.3519 37.1745 10.7904 37.0605 10.5625C36.9548 10.3265 36.7635 10.1393 36.4868 10.001C36.2101 9.86263 35.6934 9.79346 34.9365 9.79346V9.3418H42.1509C44.5272 9.3418 46.2321 9.76497 47.2656 10.6113C48.2992 11.4577 48.8159 12.5156 48.8159 13.7852C48.8159 14.8594 48.4823 15.779 47.8149 16.5439C47.1476 17.3089 46.228 17.8298 45.0562 18.1064C44.2668 18.3018 42.9321 18.3994 41.0522 18.3994ZM41.0522 10.2939V17.4473C41.3208 17.4635 41.5243 17.4717 41.6626 17.4717C42.6554 17.4717 43.4204 17.1787 43.9575 16.5928C44.4946 15.9987 44.7632 15.0832 44.7632 13.8462C44.7632 12.6174 44.4946 11.7181 43.9575 11.1484C43.4204 10.5788 42.6188 10.2939 41.5527 10.2939H41.0522Z" fill="#6B422B"/>
<path d="M56.7871 21.1826H50.9399L50.2441 22.7939C50.0163 23.3311 49.9023 23.7746 49.9023 24.1245C49.9023 24.5884 50.0895 24.9302 50.4639 25.1499C50.6836 25.2801 51.2248 25.3778 52.0874 25.4429V25.8945H46.582V25.4429C47.1761 25.3534 47.6644 25.1092 48.0469 24.7104C48.4294 24.3035 48.9014 23.4694 49.4629 22.208L55.3833 9H55.6152L61.5845 22.5742C62.1541 23.86 62.6221 24.6698 62.9883 25.0034C63.265 25.2557 63.6556 25.4022 64.1602 25.4429V25.8945H56.1523V25.4429H56.4819C57.1248 25.4429 57.5765 25.3534 57.8369 25.1743C58.0159 25.0441 58.1055 24.8569 58.1055 24.6128C58.1055 24.4663 58.0811 24.3158 58.0322 24.1611C58.0159 24.0879 57.8939 23.7827 57.666 23.2456L56.7871 21.1826ZM56.3721 20.2793L53.9062 14.5786L51.3672 20.2793H56.3721Z" fill="#6B422B"/>
<path d="M76.3672 20.2549L80.8594 9.3418H87.5977V9.79346H87.0605C86.5723 9.79346 86.1816 9.87891 85.8887 10.0498C85.6852 10.1637 85.5225 10.355 85.4004 10.6235C85.3109 10.8188 85.2661 11.3275 85.2661 12.1494V23.0625C85.2661 23.9089 85.3109 24.4378 85.4004 24.6494C85.4899 24.861 85.673 25.0482 85.9497 25.2109C86.2264 25.3656 86.5967 25.4429 87.0605 25.4429H87.5977V25.8945H78.9551V25.4429H79.4922C79.9805 25.4429 80.3711 25.3574 80.6641 25.1865C80.8675 25.0726 81.0303 24.8773 81.1523 24.6006C81.2419 24.4053 81.2866 23.8926 81.2866 23.0625V10.7944L74.939 25.8945H74.646L68.2007 10.9043V22.562C68.2007 23.3758 68.221 23.8763 68.2617 24.0635C68.3675 24.4704 68.5954 24.804 68.9453 25.0645C69.3034 25.3167 69.8608 25.4429 70.6177 25.4429V25.8945H64.9536V25.4429H65.1245C65.4907 25.451 65.8325 25.394 66.1499 25.272C66.4673 25.1418 66.7074 24.9709 66.8701 24.7593C67.0329 24.5477 67.159 24.2507 67.2485 23.8682C67.2648 23.7786 67.2729 23.3636 67.2729 22.623V12.1494C67.2729 11.3112 67.2282 10.7904 67.1387 10.5869C67.0492 10.3753 66.8661 10.1922 66.5894 10.0376C66.3127 9.87484 65.9424 9.79346 65.4785 9.79346H64.9536V9.3418H71.7163L76.3672 20.2549Z" fill="#6B422B"/>
<path d="M100.708 12.0762C100.7 11.181 100.59 10.5788 100.378 10.2695C100.175 9.95215 99.6582 9.79346 98.8281 9.79346H98.2788V9.3418H107.153V9.79346H106.58C105.815 9.79346 105.306 9.93994 105.054 10.2329C104.81 10.5259 104.688 11.1688 104.688 12.1616V23.0503C104.688 24.0675 104.814 24.7227 105.066 25.0156C105.318 25.3005 105.823 25.4429 106.58 25.4429H107.153V25.8945H98.2788V25.4429H98.8281C99.6012 25.4429 100.106 25.2923 100.342 24.9912C100.586 24.682 100.708 24.035 100.708 23.0503V14.0659L94.873 23.2212C94.873 24.0106 94.9707 24.5802 95.166 24.9302C95.3613 25.272 95.8903 25.4429 96.7529 25.4429H97.3267V25.8945H88.4521V25.4429H89.0015C89.7746 25.4429 90.2832 25.2923 90.5273 24.9912C90.7715 24.682 90.8936 24.035 90.8936 23.0503V12.1616C90.8936 11.1688 90.7959 10.5259 90.6006 10.2329C90.4053 9.93994 89.8722 9.79346 89.0015 9.79346H88.4521V9.3418H97.3267V9.79346H96.7529C96.0042 9.79346 95.5037 9.95622 95.2515 10.2817C94.9992 10.5991 94.873 11.2257 94.873 12.1616V21.2314L100.708 12.0762Z" fill="#6B422B"/>
<path d="M108.032 9.3418H116.65V9.79346H116.37C115.556 9.79346 115.011 9.94401 114.734 10.2451C114.465 10.5381 114.331 11.0996 114.331 11.9297V16.8735C115.47 16.8735 116.211 16.8369 116.553 16.7637C116.895 16.6823 117.212 16.4585 117.505 16.0923C117.798 15.7179 118.079 15.0018 118.347 13.9438C118.665 12.7069 118.97 11.7791 119.263 11.1606C119.564 10.5422 119.975 10.0539 120.496 9.6958C121.025 9.32959 121.684 9.14648 122.473 9.14648C123.254 9.14648 123.881 9.37028 124.353 9.81787C124.825 10.2573 125.061 10.8026 125.061 11.4536C125.061 11.9582 124.902 12.3569 124.585 12.6499C124.268 12.9429 123.873 13.0894 123.401 13.0894C122.473 13.0894 121.973 12.5522 121.899 11.478C121.867 10.9409 121.68 10.6724 121.338 10.6724C120.972 10.6724 120.658 10.8799 120.398 11.2949C120.138 11.71 119.857 12.4546 119.556 13.5288C119.263 14.5786 119.01 15.368 118.799 15.897C118.587 16.4178 118.286 16.8573 117.896 17.2153C118.416 17.3455 118.815 17.5164 119.092 17.728C119.377 17.9396 119.633 18.2163 119.861 18.5581C120.089 18.8918 120.577 19.7463 121.326 21.1216L123.01 24.1245C123.271 24.5721 123.58 24.9058 123.938 25.1255C124.304 25.3371 124.744 25.4429 125.256 25.4429V25.8945H119.714L116.309 19.5469C115.918 18.8307 115.629 18.3994 115.442 18.2529C115.263 18.0983 114.893 18.0088 114.331 17.9844V23.5874C114.331 24.3849 114.494 24.8936 114.819 25.1133C115.153 25.333 115.763 25.4429 116.65 25.4429V25.8945H108.032V25.4429C108.984 25.4266 109.607 25.2882 109.9 25.0278C110.201 24.7593 110.352 24.1896 110.352 23.3188V12.2471C110.352 11.2786 110.234 10.6276 109.998 10.2939C109.762 9.96029 109.224 9.79346 108.386 9.79346H108.032V9.3418Z" fill="#6B422B"/>
<path d="M135.059 16.8613H137.244C139.604 16.8613 141.313 17.2764 142.371 18.1064C143.437 18.9365 143.97 20.0433 143.97 21.4268C143.97 22.3708 143.701 23.1846 143.164 23.8682C142.627 24.5518 141.947 25.0604 141.125 25.394C140.312 25.7277 139.119 25.8945 137.549 25.8945H128.674V25.4429C129.7 25.4266 130.355 25.2923 130.64 25.04C130.933 24.7796 131.079 24.2181 131.079 23.3555V10.416C130.16 10.416 129.435 10.5137 128.906 10.709C128.385 10.9043 127.946 11.2868 127.588 11.8564C127.23 12.418 127.039 13.0771 127.014 13.834H126.562V9.3418H137.451V9.79346C136.686 9.79346 136.149 9.86263 135.84 10.001C135.531 10.1393 135.323 10.3468 135.217 10.6235C135.111 10.8921 135.059 11.3885 135.059 12.1128V16.8613ZM135.059 17.9355V22.9282C135.059 23.7176 135.164 24.2751 135.376 24.6006C135.596 24.918 136.003 25.0767 136.597 25.0767C137.549 25.0767 138.269 24.7552 138.757 24.1123C139.246 23.4694 139.49 22.6678 139.49 21.7075C139.49 20.7798 139.27 20.0026 138.831 19.376C138.391 18.7412 137.899 18.3424 137.354 18.1797C136.808 18.0169 136.043 17.9355 135.059 17.9355Z" fill="#6B422B"/>
<path d="M8.7915 36.6865V36.8198C8.7915 37.3022 8.73861 37.7466 8.63281 38.1528C8.52702 38.5549 8.36833 38.904 8.15674 39.2002C7.94938 39.4964 7.69124 39.7271 7.38232 39.8921C7.0734 40.0529 6.71582 40.1333 6.30957 40.1333C5.97526 40.1333 5.68115 40.0889 5.42725 40C5.17334 39.9069 4.95752 39.7736 4.77979 39.6001C4.60628 39.4266 4.46663 39.2192 4.36084 38.978C4.25928 38.7326 4.18945 38.4575 4.15137 38.1528V35.106C4.18945 34.7801 4.25928 34.4881 4.36084 34.23C4.46663 33.9718 4.60628 33.7518 4.77979 33.5698C4.95752 33.3879 5.17122 33.2482 5.4209 33.1509C5.67057 33.0535 5.96257 33.0049 6.29688 33.0049C6.62695 33.0049 6.92318 33.0641 7.18555 33.1826C7.45215 33.2969 7.6849 33.4619 7.88379 33.6777C8.08691 33.8936 8.25407 34.1538 8.38525 34.4585C8.52067 34.759 8.62223 35.0975 8.68994 35.4741C8.75765 35.8507 8.7915 36.2549 8.7915 36.6865ZM7.61719 36.8198V36.6865C7.61719 36.3903 7.59603 36.1089 7.55371 35.8423C7.51562 35.5715 7.45426 35.3239 7.36963 35.0996C7.28923 34.8711 7.18343 34.6722 7.05225 34.5029C6.92106 34.3337 6.76237 34.2025 6.57617 34.1094C6.39421 34.0163 6.18473 33.9697 5.94775 33.9697C5.69385 33.9697 5.48226 34.0015 5.31299 34.0649C5.14795 34.1284 5.01888 34.2131 4.92578 34.3188C4.83268 34.4204 4.76497 34.5283 4.72266 34.6426V38.6226C4.77344 38.7157 4.84749 38.8045 4.94482 38.8892C5.04215 38.9696 5.17334 39.0373 5.33838 39.0923C5.50342 39.1431 5.71077 39.1685 5.96045 39.1685C6.25667 39.1685 6.50846 39.1092 6.71582 38.9907C6.92741 38.868 7.0988 38.6987 7.22998 38.4829C7.3654 38.2671 7.46273 38.0174 7.52197 37.7339C7.58545 37.4504 7.61719 37.1457 7.61719 36.8198ZM0.634766 36.8198V36.6865C0.634766 36.2549 0.66862 35.8507 0.736328 35.4741C0.804036 35.0975 0.905599 34.759 1.04102 34.4585C1.17643 34.1538 1.34359 33.8936 1.54248 33.6777C1.74561 33.4619 1.97835 33.2969 2.24072 33.1826C2.50732 33.0641 2.80566 33.0049 3.13574 33.0049C3.46159 33.0049 3.74512 33.0535 3.98633 33.1509C4.23177 33.2482 4.43913 33.3879 4.6084 33.5698C4.77767 33.7518 4.91309 33.9718 5.01465 34.23C5.11621 34.4881 5.18815 34.7801 5.23047 35.106V38.0322C5.19238 38.3538 5.12256 38.6437 5.021 38.9019C4.91943 39.16 4.78402 39.3822 4.61475 39.5684C4.44548 39.7503 4.236 39.89 3.98633 39.9873C3.74089 40.0846 3.45312 40.1333 3.12305 40.1333C2.7168 40.1333 2.35921 40.0529 2.05029 39.8921C1.74137 39.7271 1.48112 39.4964 1.26953 39.2002C1.06217 38.904 0.903483 38.5549 0.793457 38.1528C0.687663 37.7466 0.634766 37.3022 0.634766 36.8198ZM1.81543 36.6865V36.8198C1.81543 37.1457 1.84294 37.4504 1.89795 37.7339C1.95719 38.0174 2.04818 38.2671 2.1709 38.4829C2.29785 38.6987 2.46289 38.868 2.66602 38.9907C2.86914 39.1092 3.11882 39.1685 3.41504 39.1685C3.66895 39.1685 3.87842 39.1367 4.04346 39.0732C4.2085 39.0098 4.33968 38.9272 4.43701 38.8257C4.53434 38.7241 4.6084 38.6183 4.65918 38.5083V34.6426C4.61686 34.5283 4.54704 34.4204 4.44971 34.3188C4.35661 34.2131 4.22754 34.1284 4.0625 34.0649C3.89746 34.0015 3.68587 33.9697 3.42773 33.9697C3.13151 33.9697 2.87972 34.0417 2.67236 34.1855C2.46501 34.3294 2.29785 34.5262 2.1709 34.7759C2.04818 35.0256 1.95719 35.3154 1.89795 35.6455C1.84294 35.9714 1.81543 36.3184 1.81543 36.6865ZM4.0752 42.6406V30.25H5.25586V42.6406H4.0752ZM14.3774 38.8257V35.29C14.3774 35.0192 14.3224 34.7843 14.2124 34.5854C14.1066 34.3823 13.9458 34.2257 13.73 34.1157C13.5142 34.0057 13.2476 33.9507 12.9302 33.9507C12.634 33.9507 12.3737 34.0015 12.1494 34.103C11.9294 34.2046 11.7559 34.3379 11.6289 34.5029C11.5062 34.668 11.4448 34.8457 11.4448 35.0361H10.2705C10.2705 34.7907 10.334 34.5474 10.4609 34.3062C10.5879 34.0649 10.7699 33.847 11.0068 33.6523C11.248 33.4535 11.5358 33.2969 11.8701 33.1826C12.2087 33.0641 12.5853 33.0049 13 33.0049C13.4993 33.0049 13.9395 33.0895 14.3203 33.2588C14.7054 33.4281 15.0059 33.6841 15.2217 34.0269C15.4417 34.3654 15.5518 34.7907 15.5518 35.3027V38.502C15.5518 38.7305 15.5708 38.9738 15.6089 39.2319C15.6512 39.4901 15.7126 39.7122 15.793 39.8984V40H14.5679C14.5086 39.8646 14.4621 39.6847 14.4282 39.4604C14.3944 39.2319 14.3774 39.0203 14.3774 38.8257ZM14.5806 35.8359L14.5933 36.6611H13.4062C13.0719 36.6611 12.7736 36.6886 12.5112 36.7437C12.2489 36.7944 12.0288 36.8727 11.8511 36.9785C11.6733 37.0843 11.5379 37.2176 11.4448 37.3784C11.3517 37.535 11.3052 37.7191 11.3052 37.9307C11.3052 38.1465 11.3538 38.3433 11.4512 38.521C11.5485 38.6987 11.6945 38.8405 11.8892 38.9463C12.0881 39.0479 12.3314 39.0986 12.6191 39.0986C12.9788 39.0986 13.2962 39.0225 13.5713 38.8701C13.8464 38.7178 14.0643 38.5316 14.2251 38.3115C14.3901 38.0915 14.479 37.8778 14.4917 37.6704L14.9932 38.2354C14.9635 38.4131 14.8831 38.6099 14.752 38.8257C14.6208 39.0415 14.4451 39.2489 14.2251 39.4478C14.0093 39.6424 13.7511 39.8053 13.4507 39.9365C13.1545 40.0635 12.8201 40.127 12.4478 40.127C11.9823 40.127 11.5739 40.036 11.2227 39.854C10.8757 39.672 10.6048 39.4287 10.4102 39.124C10.2197 38.8151 10.1245 38.4702 10.1245 38.0894C10.1245 37.7212 10.1965 37.3975 10.3403 37.1182C10.4842 36.8346 10.6916 36.5998 10.9624 36.4136C11.2332 36.2231 11.5591 36.0793 11.9399 35.9819C12.3208 35.8846 12.7461 35.8359 13.2158 35.8359H14.5806ZM21.8042 30.1421H22.769C22.769 30.5568 22.7056 30.8869 22.5786 31.1323C22.4517 31.3735 22.2782 31.5597 22.0581 31.6909C21.8423 31.8221 21.5968 31.9215 21.3218 31.9893C21.0509 32.057 20.7695 32.1226 20.4775 32.186C20.1136 32.2622 19.7751 32.3828 19.4619 32.5479C19.153 32.7087 18.8864 32.9372 18.6621 33.2334C18.4421 33.5296 18.2791 33.9147 18.1733 34.3887C18.0718 34.8626 18.0443 35.4487 18.0908 36.147V36.731H17.126V36.147C17.126 35.3641 17.2 34.6807 17.3481 34.0967C17.5005 33.5127 17.7142 33.0197 17.9893 32.6177C18.2643 32.2157 18.5902 31.8962 18.9668 31.6592C19.3477 31.4222 19.7666 31.2593 20.2236 31.1704C20.5537 31.1069 20.8372 31.0392 21.0742 30.9673C21.3112 30.8911 21.491 30.7896 21.6138 30.6626C21.7407 30.5356 21.8042 30.3621 21.8042 30.1421ZM20.4141 33.5254C20.8626 33.5254 21.2625 33.6037 21.6138 33.7603C21.965 33.9168 22.2633 34.1348 22.5088 34.4141C22.7542 34.6934 22.9404 35.0234 23.0674 35.4043C23.1986 35.7809 23.2642 36.1914 23.2642 36.6357V36.7754C23.2642 37.2536 23.1943 37.6979 23.0547 38.1084C22.9193 38.5146 22.7183 38.8701 22.4517 39.1748C22.1893 39.4753 21.8677 39.7101 21.4868 39.8794C21.1102 40.0487 20.6807 40.1333 20.1982 40.1333C19.7158 40.1333 19.2842 40.0487 18.9033 39.8794C18.5267 39.7101 18.2051 39.4753 17.9385 39.1748C17.6719 38.8701 17.4688 38.5146 17.3291 38.1084C17.1937 37.6979 17.126 37.2536 17.126 36.7754V36.6357C17.126 36.5299 17.145 36.4263 17.1831 36.3247C17.2212 36.2231 17.2677 36.1195 17.3228 36.0137C17.382 35.9079 17.4349 35.7957 17.4814 35.6772C17.638 35.2964 17.8517 34.943 18.1226 34.6172C18.3976 34.2913 18.7256 34.029 19.1064 33.8301C19.4915 33.627 19.9274 33.5254 20.4141 33.5254ZM20.1855 34.4839C19.7539 34.4839 19.3984 34.5833 19.1191 34.7822C18.8441 34.9811 18.6388 35.2456 18.5034 35.5757C18.368 35.9015 18.3003 36.2549 18.3003 36.6357V36.7754C18.3003 37.097 18.3384 37.4017 18.4146 37.6895C18.4907 37.9772 18.605 38.2332 18.7573 38.4575C18.9139 38.6776 19.1107 38.8511 19.3477 38.978C19.5889 39.105 19.8724 39.1685 20.1982 39.1685C20.5241 39.1685 20.8055 39.105 21.0425 38.978C21.2795 38.8511 21.4741 38.6776 21.6265 38.4575C21.7788 38.2332 21.8931 37.9772 21.9692 37.6895C22.0454 37.4017 22.0835 37.097 22.0835 36.7754V36.6357C22.0835 36.348 22.0454 36.075 21.9692 35.8169C21.8931 35.5588 21.7767 35.3302 21.6201 35.1313C21.4678 34.9325 21.271 34.7759 21.0298 34.6616C20.7928 34.5431 20.5114 34.4839 20.1855 34.4839ZM25.6572 34.4521V42.6406H24.4766V33.1318H25.5557L25.6572 34.4521ZM30.2847 36.5088V36.6421C30.2847 37.1414 30.2254 37.6048 30.1069 38.0322C29.9884 38.4554 29.8149 38.8236 29.5864 39.1367C29.3621 39.4499 29.085 39.6932 28.7549 39.8667C28.4248 40.0402 28.0461 40.127 27.6187 40.127C27.1828 40.127 26.7977 40.055 26.4634 39.9111C26.1291 39.7673 25.8455 39.5578 25.6128 39.2827C25.38 39.0076 25.1938 38.6776 25.0542 38.2925C24.9188 37.9074 24.8257 37.4736 24.7749 36.9912V36.2803C24.8257 35.7725 24.9209 35.3175 25.0605 34.9155C25.2002 34.5135 25.3843 34.1707 25.6128 33.8872C25.8455 33.5994 26.127 33.3815 26.457 33.2334C26.7871 33.0811 27.168 33.0049 27.5996 33.0049C28.0312 33.0049 28.4142 33.0895 28.7485 33.2588C29.0828 33.4238 29.3643 33.6608 29.5928 33.9697C29.8213 34.2786 29.9927 34.6489 30.1069 35.0806C30.2254 35.508 30.2847 35.984 30.2847 36.5088ZM29.104 36.6421V36.5088C29.104 36.166 29.068 35.8444 28.9961 35.5439C28.9242 35.2393 28.812 34.9727 28.6597 34.7441C28.5116 34.5114 28.3211 34.3294 28.0884 34.1982C27.8556 34.0628 27.5785 33.9951 27.2568 33.9951C26.9606 33.9951 26.7025 34.0459 26.4824 34.1475C26.2666 34.249 26.0825 34.3866 25.9302 34.5601C25.7778 34.7293 25.653 34.924 25.5557 35.144C25.4626 35.3599 25.3927 35.5841 25.3462 35.8169V37.4609C25.4308 37.7572 25.5493 38.0365 25.7017 38.2988C25.854 38.557 26.0571 38.7664 26.311 38.9272C26.5649 39.0838 26.8844 39.1621 27.2695 39.1621C27.5869 39.1621 27.8599 39.0965 28.0884 38.9653C28.3211 38.8299 28.5116 38.6458 28.6597 38.4131C28.812 38.1803 28.9242 37.9137 28.9961 37.6133C29.068 37.3086 29.104 36.9849 29.104 36.6421ZM33.0522 38.1401L36.2197 33.1318H37.4004V40H36.2197V34.9917L33.0522 40H31.8843V33.1318H33.0522V38.1401ZM40.5615 33.1318V40H39.3872V33.1318H40.5615ZM45.0684 33.1318L41.812 37.0674H40.168L39.9902 36.0391H41.3359L43.6401 33.1318H45.0684ZM43.8052 40L41.2788 36.8896L42.0342 36.0391L45.2969 40H43.8052ZM50.3687 38.8257V35.29C50.3687 35.0192 50.3136 34.7843 50.2036 34.5854C50.0978 34.3823 49.937 34.2257 49.7212 34.1157C49.5054 34.0057 49.2388 33.9507 48.9214 33.9507C48.6252 33.9507 48.3649 34.0015 48.1406 34.103C47.9206 34.2046 47.7471 34.3379 47.6201 34.5029C47.4974 34.668 47.436 34.8457 47.436 35.0361H46.2617C46.2617 34.7907 46.3252 34.5474 46.4521 34.3062C46.5791 34.0649 46.7611 33.847 46.998 33.6523C47.2393 33.4535 47.527 33.2969 47.8613 33.1826C48.1999 33.0641 48.5765 33.0049 48.9912 33.0049C49.4906 33.0049 49.9307 33.0895 50.3115 33.2588C50.6966 33.4281 50.9971 33.6841 51.2129 34.0269C51.4329 34.3654 51.543 34.7907 51.543 35.3027V38.502C51.543 38.7305 51.562 38.9738 51.6001 39.2319C51.6424 39.4901 51.7038 39.7122 51.7842 39.8984V40H50.5591C50.4998 39.8646 50.4533 39.6847 50.4194 39.4604C50.3856 39.2319 50.3687 39.0203 50.3687 38.8257ZM50.5718 35.8359L50.5845 36.6611H49.3975C49.0632 36.6611 48.7648 36.6886 48.5024 36.7437C48.2401 36.7944 48.02 36.8727 47.8423 36.9785C47.6646 37.0843 47.5291 37.2176 47.436 37.3784C47.3429 37.535 47.2964 37.7191 47.2964 37.9307C47.2964 38.1465 47.3451 38.3433 47.4424 38.521C47.5397 38.6987 47.6857 38.8405 47.8804 38.9463C48.0793 39.0479 48.3226 39.0986 48.6104 39.0986C48.9701 39.0986 49.2874 39.0225 49.5625 38.8701C49.8376 38.7178 50.0555 38.5316 50.2163 38.3115C50.3813 38.0915 50.4702 37.8778 50.4829 37.6704L50.9844 38.2354C50.9548 38.4131 50.8743 38.6099 50.7432 38.8257C50.612 39.0415 50.4364 39.2489 50.2163 39.4478C50.0005 39.6424 49.7424 39.8053 49.4419 39.9365C49.1457 40.0635 48.8114 40.127 48.439 40.127C47.9735 40.127 47.5651 40.036 47.2139 39.854C46.8669 39.672 46.596 39.4287 46.4014 39.124C46.2109 38.8151 46.1157 38.4702 46.1157 38.0894C46.1157 37.7212 46.1877 37.3975 46.3315 37.1182C46.4754 36.8346 46.6828 36.5998 46.9536 36.4136C47.2244 36.2231 47.5503 36.0793 47.9312 35.9819C48.312 35.8846 48.7373 35.8359 49.207 35.8359H50.5718ZM57.8525 33.1318H59.0269L58.9253 35.7026C58.8999 36.3543 58.8258 36.9172 58.7031 37.3911C58.5804 37.8651 58.4238 38.2692 58.2334 38.6035C58.043 38.9336 57.8293 39.2108 57.5923 39.4351C57.3595 39.6593 57.1183 39.8477 56.8687 40H56.2847L56.3164 39.0415L56.5576 39.0352C56.6973 38.8701 56.8327 38.7008 56.9639 38.5273C57.0951 38.3496 57.2157 38.1401 57.3257 37.8989C57.4357 37.6535 57.5267 37.3551 57.5986 37.0039C57.6748 36.6484 57.7235 36.2147 57.7446 35.7026L57.8525 33.1318ZM58.1445 33.1318H62.2769V40H61.1025V34.2173H58.1445V33.1318ZM56.0181 39.0352H63.1592V42.0249H61.9849V40H57.1924V42.0249H56.0117L56.0181 39.0352ZM67.3105 40.127C66.8324 40.127 66.3986 40.0465 66.0093 39.8857C65.6242 39.7207 65.292 39.4901 65.0127 39.1938C64.7376 38.8976 64.526 38.5464 64.3779 38.1401C64.2298 37.7339 64.1558 37.2896 64.1558 36.8071V36.5405C64.1558 35.9819 64.2383 35.4847 64.4033 35.0488C64.5684 34.6087 64.7926 34.2363 65.0762 33.9316C65.3597 33.627 65.6813 33.3963 66.041 33.2397C66.4007 33.0832 66.7731 33.0049 67.1582 33.0049C67.6491 33.0049 68.0723 33.0895 68.4277 33.2588C68.7874 33.4281 69.0815 33.665 69.3101 33.9697C69.5386 34.2702 69.7078 34.6257 69.8179 35.0361C69.9279 35.4424 69.9829 35.8867 69.9829 36.3691V36.896H64.854V35.9375H68.8086V35.8486C68.7917 35.5439 68.7282 35.2477 68.6182 34.96C68.5124 34.6722 68.3431 34.4352 68.1104 34.249C67.8776 34.0628 67.5602 33.9697 67.1582 33.9697C66.8916 33.9697 66.6462 34.0269 66.4219 34.1411C66.1976 34.2511 66.005 34.4162 65.8442 34.6362C65.6834 34.8563 65.5586 35.125 65.4697 35.4424C65.3809 35.7598 65.3364 36.1258 65.3364 36.5405V36.8071C65.3364 37.133 65.3809 37.4398 65.4697 37.7275C65.5628 38.0111 65.6961 38.2607 65.8696 38.4766C66.0474 38.6924 66.2611 38.8617 66.5107 38.9844C66.7646 39.1071 67.0524 39.1685 67.374 39.1685C67.7887 39.1685 68.14 39.0838 68.4277 38.9146C68.7155 38.7453 68.9673 38.5189 69.1831 38.2354L69.894 38.8003C69.7459 39.0246 69.5576 39.2383 69.3291 39.4414C69.1006 39.6445 68.8192 39.8096 68.4849 39.9365C68.1548 40.0635 67.7633 40.127 67.3105 40.127ZM72.6299 33.1318V40H71.4556V33.1318H72.6299ZM77.1367 33.1318L73.8804 37.0674H72.2363L72.0586 36.0391H73.4043L75.7085 33.1318H77.1367ZM75.8735 40L73.3472 36.8896L74.1025 36.0391L77.3652 40H75.8735ZM77.9365 36.6421V36.4961C77.9365 36.001 78.0085 35.5418 78.1523 35.1187C78.2962 34.6912 78.5036 34.321 78.7744 34.0078C79.0452 33.6904 79.3732 33.445 79.7583 33.2715C80.1434 33.0938 80.575 33.0049 81.0532 33.0049C81.5356 33.0049 81.9694 33.0938 82.3545 33.2715C82.7438 33.445 83.0739 33.6904 83.3447 34.0078C83.6198 34.321 83.8293 34.6912 83.9731 35.1187C84.117 35.5418 84.189 36.001 84.189 36.4961V36.6421C84.189 37.1372 84.117 37.5964 83.9731 38.0195C83.8293 38.4427 83.6198 38.813 83.3447 39.1304C83.0739 39.4435 82.7459 39.689 82.3608 39.8667C81.98 40.0402 81.5483 40.127 81.0659 40.127C80.5835 40.127 80.1497 40.0402 79.7646 39.8667C79.3796 39.689 79.0495 39.4435 78.7744 39.1304C78.5036 38.813 78.2962 38.4427 78.1523 38.0195C78.0085 37.5964 77.9365 37.1372 77.9365 36.6421ZM79.1108 36.4961V36.6421C79.1108 36.9849 79.151 37.3086 79.2314 37.6133C79.3118 37.9137 79.4325 38.1803 79.5933 38.4131C79.7583 38.6458 79.9635 38.8299 80.209 38.9653C80.4544 39.0965 80.7401 39.1621 81.0659 39.1621C81.3875 39.1621 81.6689 39.0965 81.9102 38.9653C82.1556 38.8299 82.3587 38.6458 82.5195 38.4131C82.6803 38.1803 82.8009 37.9137 82.8813 37.6133C82.966 37.3086 83.0083 36.9849 83.0083 36.6421V36.4961C83.0083 36.1576 82.966 35.8381 82.8813 35.5376C82.8009 35.2329 82.6782 34.9642 82.5132 34.7314C82.3524 34.4945 82.1493 34.3083 81.9038 34.1729C81.6626 34.0374 81.3791 33.9697 81.0532 33.9697C80.7316 33.9697 80.4481 34.0374 80.2026 34.1729C79.9614 34.3083 79.7583 34.4945 79.5933 34.7314C79.4325 34.9642 79.3118 35.2329 79.2314 35.5376C79.151 35.8381 79.1108 36.1576 79.1108 36.4961ZM86.8359 34.4521V42.6406H85.6553V33.1318H86.7344L86.8359 34.4521ZM91.4634 36.5088V36.6421C91.4634 37.1414 91.4041 37.6048 91.2856 38.0322C91.1672 38.4554 90.9937 38.8236 90.7651 39.1367C90.5409 39.4499 90.2637 39.6932 89.9336 39.8667C89.6035 40.0402 89.2248 40.127 88.7974 40.127C88.3615 40.127 87.9764 40.055 87.6421 39.9111C87.3078 39.7673 87.0243 39.5578 86.7915 39.2827C86.5588 39.0076 86.3726 38.6776 86.2329 38.2925C86.0975 37.9074 86.0044 37.4736 85.9536 36.9912V36.2803C86.0044 35.7725 86.0996 35.3175 86.2393 34.9155C86.3789 34.5135 86.563 34.1707 86.7915 33.8872C87.0243 33.5994 87.3057 33.3815 87.6357 33.2334C87.9658 33.0811 88.3467 33.0049 88.7783 33.0049C89.21 33.0049 89.5929 33.0895 89.9272 33.2588C90.2616 33.4238 90.543 33.6608 90.7715 33.9697C91 34.2786 91.1714 34.6489 91.2856 35.0806C91.4041 35.508 91.4634 35.984 91.4634 36.5088ZM90.2827 36.6421V36.5088C90.2827 36.166 90.2467 35.8444 90.1748 35.5439C90.1029 35.2393 89.9907 34.9727 89.8384 34.7441C89.6903 34.5114 89.4998 34.3294 89.2671 34.1982C89.0343 34.0628 88.7572 33.9951 88.4355 33.9951C88.1393 33.9951 87.8812 34.0459 87.6611 34.1475C87.4453 34.249 87.2612 34.3866 87.1089 34.5601C86.9565 34.7293 86.8317 34.924 86.7344 35.144C86.6413 35.3599 86.5715 35.5841 86.5249 35.8169V37.4609C86.6095 37.7572 86.728 38.0365 86.8804 38.2988C87.0327 38.557 87.2358 38.7664 87.4897 38.9272C87.7437 39.0838 88.0632 39.1621 88.4482 39.1621C88.7656 39.1621 89.0386 39.0965 89.2671 38.9653C89.4998 38.8299 89.6903 38.6458 89.8384 38.4131C89.9907 38.1803 90.1029 37.9137 90.1748 37.6133C90.2467 37.3086 90.2827 36.9849 90.2827 36.6421ZM97.0112 38.8257V35.29C97.0112 35.0192 96.9562 34.7843 96.8462 34.5854C96.7404 34.3823 96.5796 34.2257 96.3638 34.1157C96.1479 34.0057 95.8813 33.9507 95.564 33.9507C95.2677 33.9507 95.0075 34.0015 94.7832 34.103C94.5632 34.2046 94.3896 34.3379 94.2627 34.5029C94.14 34.668 94.0786 34.8457 94.0786 35.0361H92.9043C92.9043 34.7907 92.9678 34.5474 93.0947 34.3062C93.2217 34.0649 93.4036 33.847 93.6406 33.6523C93.8818 33.4535 94.1696 33.2969 94.5039 33.1826C94.8424 33.0641 95.2191 33.0049 95.6338 33.0049C96.1331 33.0049 96.5732 33.0895 96.9541 33.2588C97.3392 33.4281 97.6396 33.6841 97.8555 34.0269C98.0755 34.3654 98.1855 34.7907 98.1855 35.3027V38.502C98.1855 38.7305 98.2046 38.9738 98.2427 39.2319C98.285 39.4901 98.3464 39.7122 98.4268 39.8984V40H97.2017C97.1424 39.8646 97.0959 39.6847 97.062 39.4604C97.0282 39.2319 97.0112 39.0203 97.0112 38.8257ZM97.2144 35.8359L97.2271 36.6611H96.04C95.7057 36.6611 95.4074 36.6886 95.145 36.7437C94.8826 36.7944 94.6626 36.8727 94.4849 36.9785C94.3071 37.0843 94.1717 37.2176 94.0786 37.3784C93.9855 37.535 93.939 37.7191 93.939 37.9307C93.939 38.1465 93.9876 38.3433 94.085 38.521C94.1823 38.6987 94.3283 38.8405 94.5229 38.9463C94.7218 39.0479 94.9652 39.0986 95.2529 39.0986C95.6126 39.0986 95.93 39.0225 96.2051 38.8701C96.4801 38.7178 96.6981 38.5316 96.8589 38.3115C97.0239 38.0915 97.1128 37.8778 97.1255 37.6704L97.627 38.2354C97.5973 38.4131 97.5169 38.6099 97.3857 38.8257C97.2546 39.0415 97.0789 39.2489 96.8589 39.4478C96.6431 39.6424 96.3849 39.8053 96.0845 39.9365C95.7882 40.0635 95.4539 40.127 95.0815 40.127C94.616 40.127 94.2077 40.036 93.8564 39.854C93.5094 39.672 93.2386 39.4287 93.0439 39.124C92.8535 38.8151 92.7583 38.4702 92.7583 38.0894C92.7583 37.7212 92.8302 37.3975 92.9741 37.1182C93.118 36.8346 93.3254 36.5998 93.5962 36.4136C93.867 36.2231 94.1929 36.0793 94.5737 35.9819C94.9546 35.8846 95.3799 35.8359 95.8496 35.8359H97.2144Z" fill="#BF957D"/>
</svg>
